<svg width="916" height="346" viewBox="0 0 916 346" fill="none" xmlns="http://www.w3.org/2000/svg">
<ellipse cx="432" cy="187.5" rx="241" ry="145.5" fill="url(#paint0_radial_417_2)"/>
<path d="M502.017 175.807L492.419 168.149L474.231 180.707L494.282 190.509L502.46 191.734L502.017 175.807Z" fill="url(#paint1_linear_417_2)"/>
<path d="M442.78 91.8825L455.253 83L455.068 170.599L438.849 181.626C438.849 181.626 443.568 171.718 445.082 164.78C446.545 158.073 446.57 147.015 446.57 147.015L442.78 91.8825Z" fill="url(#paint2_linear_417_2)"/>
<path d="M467.086 93.7206L455.254 83.0004L455.068 170.6L470.988 181.932C470.988 181.932 466.611 171.985 465.221 165.393C463.787 158.59 463.97 147.934 463.97 147.934L467.086 93.7206Z" fill="url(#paint3_linear_417_2)"/>
<path d="M391.576 94.6392L399.781 105.972L399.051 196.634L390.364 201.229L391.576 94.6392Z" fill="url(#paint4_linear_417_2)"/>
<path d="M399.781 105.972L408.705 128.025L408.785 188.058L399.051 196.634L399.781 105.972Z" fill="url(#paint5_linear_417_2)"/>
<path d="M408.705 128.025L399.781 105.972L391.576 94.6392L412.436 105.972L422.903 128.025L435.61 180.401L417.455 166.005L408.705 128.025Z" fill="url(#paint6_linear_417_2)"/>
<path d="M500.222 129.25L506.346 106.584L515.851 96.1704L494.012 103.703L483.704 123.319L474.231 180.707L492.419 168.149L500.222 129.25Z" fill="url(#paint7_linear_417_2)"/>
<path d="M408.762 175.5L417.416 165.699L435.61 180.401L416.155 187.752L408.785 188.058L408.762 175.5Z" fill="url(#paint8_linear_417_2)"/>
<path d="M390.364 201.229L399.051 196.634L400.835 220.831H430.467L455.976 247.172L456.725 265.55L425.054 229.407H393.262L390.364 201.229Z" fill="url(#paint9_linear_417_2)"/>
<path d="M520.892 200.923L509.362 195.103L510.411 220.831L479.233 220.831L455.974 247.172L456.723 265.55L484.895 229.1L521.011 229.1L520.892 200.923Z" fill="url(#paint10_linear_417_2)"/>
<path d="M407.094 214.093H505.249L510.411 220.832H400.835L407.094 214.093Z" fill="url(#paint11_linear_417_2)"/>
<path d="M506.346 106.584L515.851 96.1704L520.93 201.228L509.401 195.409L506.346 106.584Z" fill="url(#paint12_linear_417_2)"/>
<path d="M500.222 129.251L506.346 106.585L509.401 195.41L502.46 191.734L500.222 129.251Z" fill="url(#paint13_linear_417_2)"/>
<path d="M423.771 206.742L431.544 192.346C431.544 192.346 434.638 190.832 436.1 189.283C437.776 187.508 439.071 186.332 439.116 183.77C439.131 182.941 438.849 181.626 438.849 181.626L455.068 170.6L455.473 186.22L430.467 220.831L424.687 214.093L423.771 206.742Z" fill="url(#paint14_linear_417_2)"/>
<path d="M485.927 207.661L478.384 191.734C478.384 191.734 475.678 190.11 474.298 188.671C472.796 187.104 471.795 186.09 471.256 184.076C471.034 183.247 470.988 181.932 470.988 181.932L455.068 170.6L455.473 186.22L479.236 220.831L486.729 214.093L485.927 207.661Z" fill="url(#paint15_linear_417_2)"/>
<path d="M449.134 194.797L455.378 200.31L461.481 194.797L469.03 205.823L458.951 243.804L455.976 247.173L452.816 244.11L440.979 206.13L449.134 194.797Z" fill="url(#paint16_linear_417_2)"/>
<path d="M416.155 187.752L423.527 184.995C423.527 184.995 423.726 186.529 424.142 187.445C425.054 189.457 426.335 190.435 428.342 191.427C429.527 192.013 431.544 192.346 431.544 192.346L428.295 198.472C428.295 198.472 424.188 195.912 421.857 193.878C419.392 191.725 416.155 187.752 416.155 187.752Z" fill="url(#paint17_linear_417_2)"/>
<path d="M408.747 187.752H416.155C416.155 187.752 419.392 191.725 421.857 193.878C424.188 195.912 428.295 198.472 428.295 198.472L423.771 206.742C423.771 206.742 418.348 204.788 415.249 202.76C412.082 200.688 407.964 196.328 407.964 196.328L408.747 187.752Z" fill="url(#paint18_radial_417_2)"/>
<path d="M399.051 196.634L408.747 187.752L407.094 214.093L400.835 220.831L400.303 214.093L399.051 196.634Z" fill="url(#paint19_linear_417_2)"/>
<path d="M478.384 191.734C478.384 191.734 482.618 192.201 484.443 190.815C485.87 189.731 486.724 186.833 486.724 186.833L494.282 190.509C494.282 190.509 492.458 194.685 490.416 196.634C487.968 198.971 482.579 200.616 482.579 200.616L478.384 191.734Z" fill="url(#paint20_linear_417_2)"/>
<path d="M502.46 191.734L509.401 195.409L510.188 214.093L510.411 220.832L505.249 214.093L502.46 191.734Z" fill="url(#paint21_linear_417_2)"/>
<path d="M482.579 200.616C482.579 200.616 487.968 198.971 490.416 196.634C492.458 194.685 494.282 190.508 494.282 190.508L502.46 191.733L503.071 196.634C503.071 196.634 499.458 202.08 496.001 204.291C492.576 206.483 485.927 207.661 485.927 207.661L482.579 200.616Z" fill="url(#paint22_radial_417_2)"/>
<path d="M430.467 220.832H445.591L438.063 224.813L443.998 230.327L445.591 220.832L447.205 226.345L452.778 243.803L430.467 220.832Z" fill="url(#paint23_radial_417_2)"/>
<path d="M479.236 220.832H465.037L473.368 223.282L467.109 230.02L465.037 220.832L458.951 243.803L479.236 220.832Z" fill="url(#paint24_radial_417_2)"/>
<path d="M435.182 214.093L440.979 206.129L443.516 214.093L440.28 210.417L439.12 212.255L441.667 211.643L443.516 214.093H437.96H435.182Z" fill="url(#paint25_radial_417_2)"/>
<path d="M474.691 214.093L469.03 205.823L466.666 214.093L468.985 210.418L470.604 212.255L467.904 211.643L466.666 214.093H472.222H474.691Z" fill="url(#paint26_radial_417_2)"/>
<path d="M393.262 229.408H425.074L426.133 230.633H425.549H394.51L393.262 229.408Z" fill="#033246"/>
<path d="M484.824 229.101H521.011L520.892 200.922L522.128 230.633H485.397C485.397 230.633 477.589 239.859 472.8 245.947C466.812 253.559 458.924 265.856 458.924 265.856L456.725 265.55L484.824 229.101Z" fill="#033246"/>
<path d="M407.964 196.328L408.658 196.941L408.328 214.093H407.094L407.964 196.328Z" fill="#033246"/>
<path d="M408.705 128.025L409.395 131.088L409.573 174.582L408.762 175.501L408.705 128.025Z" fill="#033246"/>
<path d="M485.927 207.661C485.927 207.661 487.582 207.312 488.628 207.048C490.28 206.631 492.797 205.823 492.797 205.823L486.582 207.967L487.346 214.093H486.729L485.927 207.661Z" fill="#033246"/>
<path d="M438.063 224.813L445.591 220.832L438.989 224.813L443.998 230.327L438.063 224.813Z" fill="#033246"/>
<path d="M465.037 220.832H465.346L467.38 229.714L467.109 230.02L465.037 220.832Z" fill="#033246"/>
<path d="M467.085 93.7202L467.47 94.3328L464.355 148.546L463.967 150.384L463.97 147.934L467.085 93.7202Z" fill="#503204"/>
<path d="M500.222 129.25L500.334 132.619L493.075 168.455L495.85 170.906L492.419 168.149L500.222 129.25Z" fill="#033246"/>
<rect y="274" width="915" height="59" fill="url(#paint27_linear_417_2)"/>
<path d="M17.5 333H89L64 346H0L17.5 333Z" fill="#FFD600"/>
<path d="M142 244H275L566 333H761L685.5 346H425L376.5 333.5L213 274H64L142 244Z" fill="url(#paint28_linear_417_2)"/>
<path d="M915.5 217.5V257L874.5 274H762.5L915.5 217.5Z" fill="url(#paint29_linear_417_2)"/>
<path d="M647.21 302.438V309H645.534V294.455H647.21V299.795H647.352C647.608 299.232 647.991 298.785 648.503 298.453C649.019 298.117 649.705 297.949 650.562 297.949C651.306 297.949 651.957 298.098 652.516 298.396C653.074 298.69 653.508 299.142 653.815 299.753C654.128 300.359 654.284 301.131 654.284 302.068V309H652.608V302.182C652.608 301.315 652.383 300.645 651.933 300.172C651.488 299.694 650.87 299.455 650.08 299.455C649.53 299.455 649.038 299.571 648.602 299.803C648.171 300.035 647.83 300.373 647.58 300.818C647.333 301.263 647.21 301.803 647.21 302.438ZM662.095 298.091V299.511H656.441V298.091H662.095ZM658.089 295.477H659.765V305.875C659.765 306.348 659.834 306.704 659.971 306.94C660.113 307.172 660.293 307.329 660.511 307.409C660.734 307.485 660.968 307.523 661.214 307.523C661.399 307.523 661.55 307.513 661.669 307.494C661.787 307.471 661.882 307.452 661.953 307.438L662.294 308.943C662.18 308.986 662.021 309.028 661.818 309.071C661.614 309.118 661.356 309.142 661.044 309.142C660.57 309.142 660.106 309.04 659.652 308.837C659.202 308.633 658.828 308.323 658.529 307.906C658.236 307.49 658.089 306.964 658.089 306.33V295.477ZM669.36 298.091V299.511H663.707V298.091H669.36ZM665.355 295.477H667.031V305.875C667.031 306.348 667.1 306.704 667.237 306.94C667.379 307.172 667.559 307.329 667.777 307.409C667.999 307.485 668.234 307.523 668.48 307.523C668.664 307.523 668.816 307.513 668.934 307.494C669.053 307.471 669.147 307.452 669.218 307.438L669.559 308.943C669.446 308.986 669.287 309.028 669.083 309.071C668.88 309.118 668.622 309.142 668.309 309.142C667.836 309.142 667.372 309.04 666.917 308.837C666.467 308.633 666.093 308.323 665.795 307.906C665.502 307.49 665.355 306.964 665.355 306.33V295.477ZM671.882 313.091V298.091H673.501V299.824H673.7C673.823 299.634 673.993 299.393 674.211 299.099C674.434 298.801 674.751 298.536 675.163 298.304C675.58 298.067 676.143 297.949 676.853 297.949C677.772 297.949 678.582 298.179 679.282 298.638C679.983 299.097 680.53 299.748 680.923 300.591C681.316 301.434 681.512 302.428 681.512 303.574C681.512 304.729 681.316 305.731 680.923 306.578C680.53 307.421 679.985 308.074 679.289 308.538C678.593 308.998 677.791 309.227 676.882 309.227C676.181 309.227 675.62 309.111 675.199 308.879C674.777 308.643 674.453 308.375 674.225 308.077C673.998 307.774 673.823 307.523 673.7 307.324H673.558V313.091H671.882ZM673.529 303.545C673.529 304.369 673.65 305.096 673.892 305.726C674.133 306.351 674.486 306.841 674.95 307.196C675.414 307.546 675.982 307.722 676.654 307.722C677.355 307.722 677.94 307.537 678.409 307.168C678.882 306.794 679.237 306.292 679.474 305.662C679.716 305.027 679.836 304.322 679.836 303.545C679.836 302.778 679.718 302.087 679.481 301.472C679.249 300.851 678.896 300.361 678.423 300.001C677.954 299.637 677.365 299.455 676.654 299.455C675.973 299.455 675.4 299.627 674.936 299.973C674.472 300.314 674.121 300.792 673.885 301.408C673.648 302.018 673.529 302.731 673.529 303.545ZM691.797 300.534L690.291 300.96C690.196 300.709 690.056 300.465 689.872 300.229C689.692 299.987 689.446 299.788 689.133 299.632C688.821 299.476 688.421 299.398 687.933 299.398C687.265 299.398 686.709 299.552 686.264 299.859C685.824 300.162 685.603 300.548 685.603 301.017C685.603 301.434 685.755 301.763 686.058 302.004C686.361 302.246 686.834 302.447 687.478 302.608L689.098 303.006C690.073 303.242 690.8 303.605 691.278 304.092C691.756 304.575 691.995 305.198 691.995 305.96C691.995 306.585 691.815 307.144 691.456 307.636C691.1 308.129 690.603 308.517 689.964 308.801C689.325 309.085 688.582 309.227 687.734 309.227C686.621 309.227 685.7 308.986 684.971 308.503C684.242 308.02 683.78 307.314 683.586 306.386L685.177 305.989C685.329 306.576 685.615 307.016 686.037 307.31C686.463 307.603 687.019 307.75 687.706 307.75C688.487 307.75 689.107 307.584 689.566 307.253C690.03 306.917 690.262 306.514 690.262 306.045C690.262 305.667 690.13 305.349 689.865 305.094C689.6 304.833 689.192 304.639 688.643 304.511L686.825 304.085C685.826 303.848 685.092 303.482 684.623 302.984C684.159 302.482 683.927 301.855 683.927 301.102C683.927 300.487 684.1 299.942 684.446 299.469C684.796 298.995 685.272 298.624 685.873 298.354C686.479 298.084 687.166 297.949 687.933 297.949C689.012 297.949 689.86 298.186 690.475 298.659C691.096 299.133 691.536 299.758 691.797 300.534ZM695.74 309.114C695.39 309.114 695.089 308.988 694.838 308.737C694.587 308.486 694.462 308.186 694.462 307.835C694.462 307.485 694.587 307.184 694.838 306.933C695.089 306.682 695.39 306.557 695.74 306.557C696.09 306.557 696.391 306.682 696.642 306.933C696.893 307.184 697.018 307.485 697.018 307.835C697.018 308.067 696.959 308.28 696.841 308.474C696.727 308.669 696.573 308.825 696.379 308.943C696.19 309.057 695.977 309.114 695.74 309.114ZM695.74 301.017C695.39 301.017 695.089 300.892 694.838 300.641C694.587 300.39 694.462 300.089 694.462 299.739C694.462 299.388 694.587 299.088 694.838 298.837C695.089 298.586 695.39 298.46 695.74 298.46C696.09 298.46 696.391 298.586 696.642 298.837C696.893 299.088 697.018 299.388 697.018 299.739C697.018 299.971 696.959 300.184 696.841 300.378C696.727 300.572 696.573 300.728 696.379 300.847C696.19 300.96 695.977 301.017 695.74 301.017ZM705.168 293.773L700.481 311.188H698.947L703.634 293.773H705.168ZM712.297 293.773L707.61 311.188H706.076L710.763 293.773H712.297ZM714.71 309L721.216 296.131V296.017H713.716V294.455H723.034V296.102L716.557 309H714.71ZM729.268 309.227C728.217 309.227 727.31 308.995 726.548 308.531C725.79 308.062 725.206 307.409 724.794 306.571C724.386 305.728 724.183 304.748 724.183 303.631C724.183 302.513 724.386 301.528 724.794 300.676C725.206 299.819 725.779 299.152 726.512 298.673C727.251 298.19 728.113 297.949 729.098 297.949C729.666 297.949 730.227 298.044 730.781 298.233C731.335 298.422 731.839 298.73 732.294 299.156C732.748 299.578 733.11 300.136 733.38 300.832C733.65 301.528 733.785 302.385 733.785 303.403V304.114H725.376V302.665H732.081C732.081 302.049 731.958 301.5 731.711 301.017C731.47 300.534 731.124 300.153 730.674 299.874C730.229 299.594 729.704 299.455 729.098 299.455C728.43 299.455 727.852 299.62 727.365 299.952C726.882 300.278 726.51 300.705 726.25 301.23C725.989 301.756 725.859 302.319 725.859 302.92V303.886C725.859 304.71 726.001 305.409 726.285 305.982C726.574 306.55 726.974 306.983 727.485 307.281C727.997 307.575 728.591 307.722 729.268 307.722C729.708 307.722 730.106 307.66 730.461 307.537C730.821 307.409 731.131 307.22 731.392 306.969C731.652 306.713 731.853 306.396 731.995 306.017L733.615 306.472C733.444 307.021 733.158 307.504 732.755 307.92C732.353 308.332 731.856 308.654 731.264 308.886C730.672 309.114 730.007 309.227 729.268 309.227ZM737.556 309.114C737.206 309.114 736.905 308.988 736.654 308.737C736.404 308.486 736.278 308.186 736.278 307.835C736.278 307.485 736.404 307.184 736.654 306.933C736.905 306.682 737.206 306.557 737.556 306.557C737.907 306.557 738.208 306.682 738.458 306.933C738.709 307.184 738.835 307.485 738.835 307.835C738.835 308.067 738.776 308.28 738.657 308.474C738.544 308.669 738.39 308.825 738.196 308.943C738.006 309.057 737.793 309.114 737.556 309.114ZM746.275 309.227C745.252 309.227 744.371 308.986 743.632 308.503C742.894 308.02 742.326 307.355 741.928 306.507C741.53 305.66 741.331 304.691 741.331 303.602C741.331 302.494 741.535 301.517 741.942 300.669C742.354 299.817 742.927 299.152 743.661 298.673C744.4 298.19 745.261 297.949 746.246 297.949C747.013 297.949 747.704 298.091 748.32 298.375C748.935 298.659 749.44 299.057 749.833 299.568C750.226 300.08 750.47 300.676 750.564 301.358H748.888C748.76 300.861 748.476 300.42 748.036 300.037C747.6 299.649 747.013 299.455 746.275 299.455C745.621 299.455 745.048 299.625 744.556 299.966C744.068 300.302 743.687 300.778 743.412 301.393C743.142 302.004 743.007 302.722 743.007 303.545C743.007 304.388 743.14 305.122 743.405 305.747C743.675 306.372 744.054 306.857 744.542 307.203C745.034 307.549 745.612 307.722 746.275 307.722C746.71 307.722 747.105 307.646 747.461 307.494C747.816 307.343 748.116 307.125 748.363 306.841C748.609 306.557 748.784 306.216 748.888 305.818H750.564C750.47 306.462 750.235 307.042 749.861 307.558C749.492 308.07 749.002 308.477 748.391 308.78C747.785 309.078 747.079 309.227 746.275 309.227ZM757.446 309.227C756.462 309.227 755.597 308.993 754.854 308.524C754.115 308.055 753.538 307.4 753.121 306.557C752.709 305.714 752.503 304.729 752.503 303.602C752.503 302.466 752.709 301.474 753.121 300.626C753.538 299.779 754.115 299.121 754.854 298.652C755.597 298.183 756.462 297.949 757.446 297.949C758.431 297.949 759.293 298.183 760.032 298.652C760.775 299.121 761.353 299.779 761.765 300.626C762.181 301.474 762.39 302.466 762.39 303.602C762.39 304.729 762.181 305.714 761.765 306.557C761.353 307.4 760.775 308.055 760.032 308.524C759.293 308.993 758.431 309.227 757.446 309.227ZM757.446 307.722C758.194 307.722 758.81 307.53 759.293 307.146C759.776 306.763 760.133 306.259 760.365 305.634C760.597 305.009 760.713 304.331 760.713 303.602C760.713 302.873 760.597 302.194 760.365 301.564C760.133 300.934 759.776 300.425 759.293 300.037C758.81 299.649 758.194 299.455 757.446 299.455C756.698 299.455 756.083 299.649 755.6 300.037C755.117 300.425 754.759 300.934 754.527 301.564C754.295 302.194 754.179 302.873 754.179 303.602C754.179 304.331 754.295 305.009 754.527 305.634C754.759 306.259 755.117 306.763 755.6 307.146C756.083 307.53 756.698 307.722 757.446 307.722ZM764.948 309V298.091H766.567V299.795H766.71C766.937 299.213 767.304 298.761 767.81 298.439C768.317 298.112 768.925 297.949 769.636 297.949C770.355 297.949 770.954 298.112 771.433 298.439C771.915 298.761 772.292 299.213 772.562 299.795H772.675C772.955 299.232 773.374 298.785 773.933 298.453C774.491 298.117 775.161 297.949 775.942 297.949C776.918 297.949 777.716 298.254 778.336 298.865C778.956 299.471 779.266 300.416 779.266 301.699V309H777.59V301.699C777.59 300.894 777.37 300.319 776.93 299.973C776.489 299.627 775.971 299.455 775.374 299.455C774.607 299.455 774.013 299.687 773.592 300.151C773.17 300.61 772.96 301.192 772.96 301.898V309H771.255V301.528C771.255 300.908 771.054 300.409 770.651 300.03C770.249 299.646 769.73 299.455 769.096 299.455C768.66 299.455 768.253 299.571 767.874 299.803C767.5 300.035 767.197 300.357 766.965 300.768C766.738 301.176 766.624 301.647 766.624 302.182V309H764.948ZM783.553 309.114C783.202 309.114 782.902 308.988 782.651 308.737C782.4 308.486 782.274 308.186 782.274 307.835C782.274 307.485 782.4 307.184 782.651 306.933C782.902 306.682 783.202 306.557 783.553 306.557C783.903 306.557 784.204 306.682 784.455 306.933C784.705 307.184 784.831 307.485 784.831 307.835C784.831 308.067 784.772 308.28 784.653 308.474C784.54 308.669 784.386 308.825 784.192 308.943C784.002 309.057 783.789 309.114 783.553 309.114ZM794.714 304.54V298.091H796.39V309H794.714V307.153H794.6C794.344 307.707 793.947 308.179 793.407 308.567C792.867 308.95 792.185 309.142 791.362 309.142C790.68 309.142 790.074 308.993 789.543 308.695C789.013 308.392 788.596 307.937 788.293 307.331C787.99 306.72 787.839 305.951 787.839 305.023V298.091H789.515V304.909C789.515 305.705 789.737 306.339 790.183 306.812C790.632 307.286 791.205 307.523 791.901 307.523C792.318 307.523 792.742 307.416 793.173 307.203C793.608 306.99 793.973 306.663 794.266 306.223C794.565 305.783 794.714 305.222 794.714 304.54ZM802.67 309.256C801.979 309.256 801.351 309.125 800.788 308.865C800.225 308.6 799.777 308.219 799.446 307.722C799.114 307.22 798.949 306.614 798.949 305.903C798.949 305.278 799.072 304.772 799.318 304.384C799.564 303.991 799.893 303.683 800.305 303.46C800.717 303.238 801.172 303.072 801.669 302.963C802.171 302.849 802.675 302.759 803.181 302.693C803.844 302.608 804.382 302.544 804.794 302.501C805.21 302.454 805.513 302.376 805.703 302.267C805.897 302.158 805.994 301.969 805.994 301.699V301.642C805.994 300.941 805.802 300.397 805.419 300.009C805.04 299.62 804.465 299.426 803.693 299.426C802.893 299.426 802.265 299.601 801.811 299.952C801.356 300.302 801.037 300.676 800.852 301.074L799.261 300.506C799.545 299.843 799.924 299.327 800.397 298.957C800.876 298.583 801.396 298.323 801.96 298.176C802.528 298.025 803.087 297.949 803.636 297.949C803.986 297.949 804.389 297.991 804.843 298.077C805.303 298.157 805.745 298.325 806.172 298.581C806.602 298.837 806.96 299.223 807.244 299.739C807.528 300.255 807.67 300.946 807.67 301.812V309H805.994V307.523H805.909C805.795 307.759 805.606 308.013 805.341 308.283C805.075 308.553 804.723 308.782 804.282 308.972C803.842 309.161 803.305 309.256 802.67 309.256ZM802.926 307.75C803.589 307.75 804.147 307.62 804.602 307.359C805.061 307.099 805.407 306.763 805.639 306.351C805.876 305.939 805.994 305.506 805.994 305.051V303.517C805.923 303.602 805.767 303.68 805.525 303.751C805.288 303.818 805.014 303.877 804.701 303.929C804.394 303.976 804.093 304.019 803.799 304.057C803.511 304.09 803.276 304.118 803.096 304.142C802.661 304.199 802.253 304.291 801.875 304.419C801.501 304.542 801.198 304.729 800.966 304.98C800.738 305.226 800.625 305.562 800.625 305.989C800.625 306.571 800.84 307.011 801.271 307.31C801.707 307.603 802.258 307.75 802.926 307.75ZM815.871 293.773L811.184 311.188H809.65L814.337 293.773H815.871ZM820.33 309L817.006 298.091H818.767L821.125 306.443H821.239L823.569 298.091H825.358L827.659 306.415H827.773L830.131 298.091H831.892L828.569 309H826.921L824.534 300.619H824.364L821.978 309H820.33ZM838.311 309.227C837.26 309.227 836.353 308.995 835.591 308.531C834.833 308.062 834.249 307.409 833.837 306.571C833.429 305.728 833.226 304.748 833.226 303.631C833.226 302.513 833.429 301.528 833.837 300.676C834.249 299.819 834.821 299.152 835.555 298.673C836.294 298.19 837.156 297.949 838.141 297.949C838.709 297.949 839.27 298.044 839.824 298.233C840.378 298.422 840.882 298.73 841.337 299.156C841.791 299.578 842.153 300.136 842.423 300.832C842.693 301.528 842.828 302.385 842.828 303.403V304.114H834.419V302.665H841.124C841.124 302.049 841 301.5 840.754 301.017C840.513 300.534 840.167 300.153 839.717 299.874C839.272 299.594 838.747 299.455 838.141 299.455C837.473 299.455 836.895 299.62 836.408 299.952C835.925 300.278 835.553 300.705 835.293 301.23C835.032 301.756 834.902 302.319 834.902 302.92V303.886C834.902 304.71 835.044 305.409 835.328 305.982C835.617 306.55 836.017 306.983 836.528 307.281C837.04 307.575 837.634 307.722 838.311 307.722C838.751 307.722 839.149 307.66 839.504 307.537C839.864 307.409 840.174 307.22 840.435 306.969C840.695 306.713 840.896 306.396 841.038 306.017L842.658 306.472C842.487 307.021 842.201 307.504 841.798 307.92C841.396 308.332 840.899 308.654 840.307 308.886C839.715 309.114 839.05 309.227 838.311 309.227ZM845.605 309V294.455H847.281V299.824H847.423C847.546 299.634 847.717 299.393 847.935 299.099C848.157 298.801 848.474 298.536 848.886 298.304C849.303 298.067 849.866 297.949 850.577 297.949C851.495 297.949 852.305 298.179 853.006 298.638C853.706 299.097 854.253 299.748 854.646 300.591C855.039 301.434 855.236 302.428 855.236 303.574C855.236 304.729 855.039 305.731 854.646 306.578C854.253 307.421 853.709 308.074 853.013 308.538C852.317 308.998 851.514 309.227 850.605 309.227C849.904 309.227 849.343 309.111 848.922 308.879C848.5 308.643 848.176 308.375 847.949 308.077C847.722 307.774 847.546 307.523 847.423 307.324H847.224V309H845.605ZM847.253 303.545C847.253 304.369 847.374 305.096 847.615 305.726C847.857 306.351 848.209 306.841 848.673 307.196C849.137 307.546 849.705 307.722 850.378 307.722C851.079 307.722 851.663 307.537 852.132 307.168C852.606 306.794 852.961 306.292 853.197 305.662C853.439 305.027 853.56 304.322 853.56 303.545C853.56 302.778 853.441 302.087 853.205 301.472C852.973 300.851 852.62 300.361 852.146 300.001C851.678 299.637 851.088 299.455 850.378 299.455C849.696 299.455 849.123 299.627 848.659 299.973C848.195 300.314 847.845 300.792 847.608 301.408C847.371 302.018 847.253 302.731 847.253 303.545ZM861.919 309.227C861.01 309.227 860.207 308.998 859.511 308.538C858.815 308.074 858.271 307.421 857.878 306.578C857.485 305.731 857.288 304.729 857.288 303.574C857.288 302.428 857.485 301.434 857.878 300.591C858.271 299.748 858.818 299.097 859.518 298.638C860.219 298.179 861.029 297.949 861.947 297.949C862.658 297.949 863.219 298.067 863.631 298.304C864.047 298.536 864.365 298.801 864.582 299.099C864.805 299.393 864.978 299.634 865.101 299.824H865.243V294.455H866.919V309H865.3V307.324H865.101C864.978 307.523 864.803 307.774 864.575 308.077C864.348 308.375 864.024 308.643 863.602 308.879C863.181 309.111 862.62 309.227 861.919 309.227ZM862.146 307.722C862.819 307.722 863.387 307.546 863.851 307.196C864.315 306.841 864.668 306.351 864.909 305.726C865.151 305.096 865.271 304.369 865.271 303.545C865.271 302.731 865.153 302.018 864.916 301.408C864.679 300.792 864.329 300.314 863.865 299.973C863.401 299.627 862.828 299.455 862.146 299.455C861.436 299.455 860.844 299.637 860.371 300.001C859.902 300.361 859.549 300.851 859.312 301.472C859.08 302.087 858.964 302.778 858.964 303.545C858.964 304.322 859.083 305.027 859.32 305.662C859.561 306.292 859.916 306.794 860.385 307.168C860.858 307.537 861.446 307.722 862.146 307.722ZM874.795 309.227C873.744 309.227 872.838 308.995 872.075 308.531C871.318 308.062 870.733 307.409 870.321 306.571C869.914 305.728 869.71 304.748 869.71 303.631C869.71 302.513 869.914 301.528 870.321 300.676C870.733 299.819 871.306 299.152 872.04 298.673C872.778 298.19 873.64 297.949 874.625 297.949C875.193 297.949 875.754 298.044 876.308 298.233C876.862 298.422 877.366 298.73 877.821 299.156C878.276 299.578 878.638 300.136 878.908 300.832C879.178 301.528 879.312 302.385 879.312 303.403V304.114H870.903V302.665H877.608C877.608 302.049 877.485 301.5 877.239 301.017C876.997 300.534 876.652 300.153 876.202 299.874C875.757 299.594 875.231 299.455 874.625 299.455C873.957 299.455 873.38 299.62 872.892 299.952C872.409 300.278 872.037 300.705 871.777 301.23C871.517 301.756 871.386 302.319 871.386 302.92V303.886C871.386 304.71 871.528 305.409 871.812 305.982C872.101 306.55 872.501 306.983 873.013 307.281C873.524 307.575 874.118 307.722 874.795 307.722C875.236 307.722 875.634 307.66 875.989 307.537C876.348 307.409 876.659 307.22 876.919 306.969C877.179 306.713 877.381 306.396 877.523 306.017L879.142 306.472C878.972 307.021 878.685 307.504 878.283 307.92C877.88 308.332 877.383 308.654 876.791 308.886C876.199 309.114 875.534 309.227 874.795 309.227ZM890.451 298.091L886.417 309H884.712L880.678 298.091H882.496L885.507 306.784H885.621L888.632 298.091H890.451ZM896.672 293.773L891.985 311.188H890.451L895.138 293.773H896.672Z" fill="white"/>
<path d="M299.273 50.1989V48.5511H300.182C300.532 48.5511 300.826 48.4825 301.062 48.3452C301.304 48.2079 301.503 48.0303 301.659 47.8125C301.82 47.5947 301.952 47.3674 302.057 47.1307L302.284 46.5909L297.256 35.4545H299.159L303.165 44.4886L306.829 35.4545H308.704L303.676 47.642C303.477 48.0966 303.25 48.518 302.994 48.9062C302.743 49.2945 302.4 49.607 301.964 49.8438C301.533 50.0805 300.949 50.1989 300.21 50.1989H299.273ZM313.648 50.2273C312.625 50.2273 311.744 49.9858 311.006 49.5028C310.267 49.0199 309.699 48.3546 309.301 47.5071C308.903 46.6596 308.704 45.6913 308.704 44.6023C308.704 43.4943 308.908 42.5166 309.315 41.669C309.727 40.8168 310.3 40.1515 311.034 39.6733C311.773 39.1903 312.634 38.9489 313.619 38.9489C314.386 38.9489 315.077 39.0909 315.693 39.375C316.309 39.6591 316.813 40.0568 317.206 40.5682C317.599 41.0795 317.843 41.6761 317.937 42.358H316.261C316.133 41.8608 315.849 41.4205 315.409 41.0369C314.973 40.6487 314.386 40.4545 313.648 40.4545C312.994 40.4545 312.421 40.625 311.929 40.9659C311.441 41.3021 311.06 41.7779 310.785 42.3935C310.515 43.0043 310.381 43.7216 310.381 44.5455C310.381 45.3883 310.513 46.1222 310.778 46.7472C311.048 47.3722 311.427 47.8575 311.915 48.2031C312.407 48.5488 312.985 48.7216 313.648 48.7216C314.083 48.7216 314.479 48.6458 314.834 48.4943C315.189 48.3428 315.489 48.125 315.736 47.8409C315.982 47.5568 316.157 47.2159 316.261 46.8182H317.937C317.843 47.4621 317.608 48.0421 317.234 48.5582C316.865 49.0696 316.375 49.4768 315.764 49.7798C315.158 50.0781 314.452 50.2273 313.648 50.2273ZM320.388 50V39.0909H328.967V50H327.291V40.6534H322.064V50H320.388ZM332.028 50V39.0909H333.704V50H332.028ZM332.881 37.2727C332.554 37.2727 332.272 37.1615 332.035 36.9389C331.803 36.7164 331.687 36.4489 331.687 36.1364C331.687 35.8239 331.803 35.5563 332.035 35.3338C332.272 35.1113 332.554 35 332.881 35C333.207 35 333.487 35.1113 333.719 35.3338C333.955 35.5563 334.074 35.8239 334.074 36.1364C334.074 36.4489 333.955 36.7164 333.719 36.9389C333.487 37.1615 333.207 37.2727 332.881 37.2727ZM338.024 39.0909L340.638 43.5511L343.252 39.0909H345.183L341.661 44.5455L345.183 50H343.252L340.638 45.767L338.024 50H336.093L339.558 44.5455L336.093 39.0909H338.024ZM348.655 54.0909C348.371 54.0909 348.117 54.0672 347.895 54.0199C347.672 53.9773 347.518 53.9347 347.433 53.892L347.859 52.4148C348.266 52.5189 348.626 52.5568 348.939 52.5284C349.251 52.5 349.528 52.3603 349.77 52.1094C350.016 51.8632 350.241 51.4631 350.444 50.9091L350.757 50.0568L346.723 39.0909H348.541L351.552 47.7841H351.666L354.677 39.0909H356.496L351.865 51.5909C351.657 52.1544 351.398 52.6207 351.091 52.9901C350.783 53.3641 350.425 53.6411 350.018 53.821C349.616 54.0009 349.161 54.0909 348.655 54.0909ZM365.412 54.0909C365.128 54.0909 364.875 54.0672 364.653 54.0199C364.43 53.9773 364.276 53.9347 364.191 53.892L364.617 52.4148C365.024 52.5189 365.384 52.5568 365.697 52.5284C366.009 52.5 366.286 52.3603 366.528 52.1094C366.774 51.8632 366.999 51.4631 367.202 50.9091L367.515 50.0568L363.481 39.0909H365.299L368.31 47.7841H368.424L371.435 39.0909H373.253L368.623 51.5909C368.414 52.1544 368.156 52.6207 367.849 52.9901C367.541 53.3641 367.183 53.6411 366.776 53.821C366.374 54.0009 365.919 54.0909 365.412 54.0909ZM388.392 43.7784V45.3409H382.369V43.7784H388.392ZM382.767 39.0909V50H381.091V39.0909H382.767ZM389.67 39.0909V50H387.994V39.0909H389.67ZM395.942 50.2557C395.25 50.2557 394.623 50.1255 394.059 49.8651C393.496 49.5999 393.049 49.2188 392.717 48.7216C392.386 48.2197 392.22 47.6136 392.22 46.9034C392.22 46.2784 392.343 45.7718 392.589 45.3835C392.836 44.9905 393.165 44.6828 393.577 44.4602C393.988 44.2377 394.443 44.072 394.94 43.9631C395.442 43.8494 395.946 43.7595 396.453 43.6932C397.116 43.608 397.653 43.544 398.065 43.5014C398.482 43.4541 398.785 43.3759 398.974 43.267C399.168 43.1581 399.265 42.9687 399.265 42.6989V42.642C399.265 41.9413 399.074 41.3968 398.69 41.0085C398.311 40.6203 397.736 40.4261 396.964 40.4261C396.164 40.4261 395.537 40.6013 395.082 40.9517C394.628 41.3021 394.308 41.6761 394.123 42.0739L392.532 41.5057C392.817 40.8428 393.195 40.3267 393.669 39.9574C394.147 39.5833 394.668 39.3229 395.231 39.1761C395.8 39.0246 396.358 38.9489 396.907 38.9489C397.258 38.9489 397.66 38.9915 398.115 39.0767C398.574 39.1572 399.017 39.3253 399.443 39.581C399.874 39.8366 400.231 40.2225 400.515 40.7386C400.8 41.2547 400.942 41.946 400.942 42.8125V50H399.265V48.5227H399.18C399.067 48.7595 398.877 49.0128 398.612 49.2827C398.347 49.5526 397.994 49.7822 397.554 49.9716C397.113 50.161 396.576 50.2557 395.942 50.2557ZM396.197 48.75C396.86 48.75 397.419 48.6198 397.873 48.3594C398.333 48.099 398.678 47.7628 398.91 47.3509C399.147 46.9389 399.265 46.5057 399.265 46.0511V44.517C399.194 44.6023 399.038 44.6804 398.797 44.7514C398.56 44.8177 398.285 44.8769 397.973 44.929C397.665 44.9763 397.364 45.0189 397.071 45.0568C396.782 45.09 396.548 45.1184 396.368 45.142C395.932 45.1989 395.525 45.2912 395.146 45.419C394.772 45.5421 394.469 45.7292 394.237 45.9801C394.01 46.2263 393.896 46.5625 393.896 46.9886C393.896 47.571 394.112 48.0114 394.542 48.3097C394.978 48.6032 395.53 48.75 396.197 48.75ZM404.001 50V39.0909H408.461C409.635 39.0909 410.568 39.3561 411.259 39.8864C411.951 40.4167 412.296 41.1174 412.296 41.9886C412.296 42.6515 412.1 43.1652 411.707 43.5298C411.314 43.8897 410.81 44.1335 410.194 44.2614C410.597 44.3182 410.987 44.4602 411.366 44.6875C411.749 44.9148 412.067 45.2273 412.318 45.625C412.569 46.018 412.694 46.5009 412.694 47.0739C412.694 47.6326 412.552 48.1321 412.268 48.5724C411.984 49.0128 411.577 49.3608 411.046 49.6165C410.516 49.8722 409.882 50 409.143 50H404.001ZM405.592 48.4659H409.143C409.721 48.4659 410.173 48.3286 410.499 48.054C410.826 47.7794 410.99 47.4053 410.99 46.9318C410.99 46.3684 410.826 45.9257 410.499 45.6037C410.173 45.277 409.721 45.1136 409.143 45.1136H405.592V48.4659ZM405.592 43.6648H408.461C408.911 43.6648 409.297 43.6032 409.619 43.4801C409.941 43.3523 410.187 43.1723 410.357 42.9403C410.533 42.7036 410.62 42.4242 410.62 42.1023C410.62 41.643 410.428 41.2831 410.045 41.0227C409.661 40.7576 409.133 40.625 408.461 40.625H405.592V43.6648ZM423.64 39.0909V50H421.964V39.0909H423.64ZM422.987 44.2898V45.8523C422.608 45.9943 422.232 46.1198 421.858 46.2287C421.484 46.3329 421.091 46.4157 420.679 46.4773C420.267 46.5341 419.815 46.5625 419.322 46.5625C418.086 46.5625 417.095 46.2287 416.346 45.5611C415.603 44.8935 415.231 43.892 415.231 42.5568V39.0625H416.907V42.5568C416.907 43.1155 417.014 43.5748 417.227 43.9347C417.44 44.2945 417.729 44.562 418.094 44.7372C418.458 44.9124 418.868 45 419.322 45C420.032 45 420.674 44.9361 421.247 44.8082C421.825 44.6757 422.405 44.5028 422.987 44.2898ZM429.926 50.2557C429.235 50.2557 428.607 50.1255 428.044 49.8651C427.48 49.5999 427.033 49.2188 426.702 48.7216C426.37 48.2197 426.204 47.6136 426.204 46.9034C426.204 46.2784 426.327 45.7718 426.574 45.3835C426.82 44.9905 427.149 44.6828 427.561 44.4602C427.973 44.2377 428.427 44.072 428.925 43.9631C429.426 43.8494 429.931 43.7595 430.437 43.6932C431.1 43.608 431.638 43.544 432.05 43.5014C432.466 43.4541 432.769 43.3759 432.959 43.267C433.153 43.1581 433.25 42.9687 433.25 42.6989V42.642C433.25 41.9413 433.058 41.3968 432.675 41.0085C432.296 40.6203 431.72 40.4261 430.949 40.4261C430.148 40.4261 429.521 40.6013 429.067 40.9517C428.612 41.3021 428.292 41.6761 428.108 42.0739L426.517 41.5057C426.801 40.8428 427.18 40.3267 427.653 39.9574C428.131 39.5833 428.652 39.3229 429.216 39.1761C429.784 39.0246 430.343 38.9489 430.892 38.9489C431.242 38.9489 431.645 38.9915 432.099 39.0767C432.559 39.1572 433.001 39.3253 433.427 39.581C433.858 39.8366 434.216 40.2225 434.5 40.7386C434.784 41.2547 434.926 41.946 434.926 42.8125V50H433.25V48.5227H433.165C433.051 48.7595 432.862 49.0128 432.596 49.2827C432.331 49.5526 431.979 49.7822 431.538 49.9716C431.098 50.161 430.56 50.2557 429.926 50.2557ZM430.182 48.75C430.845 48.75 431.403 48.6198 431.858 48.3594C432.317 48.099 432.663 47.7628 432.895 47.3509C433.131 46.9389 433.25 46.5057 433.25 46.0511V44.517C433.179 44.6023 433.023 44.6804 432.781 44.7514C432.544 44.8177 432.27 44.8769 431.957 44.929C431.649 44.9763 431.349 45.0189 431.055 45.0568C430.766 45.09 430.532 45.1184 430.352 45.142C429.916 45.1989 429.509 45.2912 429.131 45.419C428.756 45.5421 428.453 45.7292 428.221 45.9801C427.994 46.2263 427.881 46.5625 427.881 46.9886C427.881 47.571 428.096 48.0114 428.527 48.3097C428.962 48.6032 429.514 48.75 430.182 48.75ZM445.286 43.7784V45.3409H439.264V43.7784H445.286ZM439.661 39.0909V50H437.985V39.0909H439.661ZM446.565 39.0909V50H444.889V39.0909H446.565ZM456.927 43.7784V45.3409H450.904V43.7784H456.927ZM451.302 39.0909V50H449.626V39.0909H451.302ZM458.205 39.0909V50H456.529V39.0909H458.205ZM461.267 50V39.0909H462.943V50H461.267ZM462.119 37.2727C461.792 37.2727 461.51 37.1615 461.274 36.9389C461.042 36.7164 460.926 36.4489 460.926 36.1364C460.926 35.8239 461.042 35.5563 461.274 35.3338C461.51 35.1113 461.792 35 462.119 35C462.445 35 462.725 35.1113 462.957 35.3338C463.194 35.5563 463.312 35.8239 463.312 36.1364C463.312 36.4489 463.194 36.7164 462.957 36.9389C462.725 37.1615 462.445 37.2727 462.119 37.2727ZM471.638 50V39.0909H473.314V50H471.638ZM472.49 37.2727C472.163 37.2727 471.881 37.1615 471.645 36.9389C471.413 36.7164 471.297 36.4489 471.297 36.1364C471.297 35.8239 471.413 35.5563 471.645 35.3338C471.881 35.1113 472.163 35 472.49 35C472.817 35 473.096 35.1113 473.328 35.3338C473.565 35.5563 473.683 35.8239 473.683 36.1364C473.683 36.4489 473.565 36.7164 473.328 36.9389C473.096 37.1615 472.817 37.2727 472.49 37.2727ZM487.975 47.7273L491.781 39.0909H493.372L488.656 50H487.293L482.662 39.0909H484.225L487.975 47.7273ZM483.685 39.0909V50H482.009V39.0909H483.685ZM492.264 50V39.0909H493.941V50H492.264ZM498.685 47.5284L503.941 39.0909H505.872V50H504.196V41.5625L498.969 50H497.009V39.0909H498.685V47.5284ZM508.942 54.0909V39.0909H510.562V40.8239H510.76C510.884 40.6345 511.054 40.393 511.272 40.0994C511.494 39.8011 511.812 39.536 512.224 39.304C512.64 39.0672 513.204 38.9489 513.914 38.9489C514.832 38.9489 515.642 39.1785 516.343 39.6378C517.044 40.0971 517.59 40.7481 517.983 41.5909C518.376 42.4337 518.573 43.428 518.573 44.5739C518.573 45.7292 518.376 46.7306 517.983 47.5781C517.59 48.4209 517.046 49.0743 516.35 49.5384C515.654 49.9976 514.851 50.2273 513.942 50.2273C513.242 50.2273 512.68 50.1113 512.259 49.8793C511.838 49.6425 511.513 49.375 511.286 49.0767C511.059 48.7737 510.884 48.5227 510.76 48.3239H510.618V54.0909H508.942ZM510.59 44.5455C510.59 45.3693 510.711 46.0961 510.952 46.7259C511.194 47.3509 511.546 47.8409 512.01 48.196C512.474 48.5464 513.043 48.7216 513.715 48.7216C514.416 48.7216 515.001 48.5369 515.469 48.1676C515.943 47.7936 516.298 47.2917 516.535 46.6619C516.776 46.0275 516.897 45.322 516.897 44.5455C516.897 43.7784 516.778 43.0871 516.542 42.4716C516.31 41.8513 515.957 41.3613 515.483 41.0014C515.015 40.6368 514.425 40.4545 513.715 40.4545C513.033 40.4545 512.46 40.6274 511.996 40.973C511.532 41.3139 511.182 41.7921 510.945 42.4077C510.708 43.0185 510.59 43.7311 510.59 44.5455ZM528.431 43.7784V45.3409H522.408V43.7784H528.431ZM522.806 39.0909V50H521.13V39.0909H522.806ZM529.709 39.0909V50H528.033V39.0909H529.709ZM537.202 50.2273C536.217 50.2273 535.353 49.9929 534.61 49.5241C533.871 49.0554 533.294 48.3996 532.877 47.5568C532.465 46.714 532.259 45.7292 532.259 44.6023C532.259 43.4659 532.465 42.474 532.877 41.6264C533.294 40.7789 533.871 40.1207 534.61 39.652C535.353 39.1832 536.217 38.9489 537.202 38.9489C538.187 38.9489 539.049 39.1832 539.787 39.652C540.531 40.1207 541.108 40.7789 541.52 41.6264C541.937 42.474 542.145 43.4659 542.145 44.6023C542.145 45.7292 541.937 46.714 541.52 47.5568C541.108 48.3996 540.531 49.0554 539.787 49.5241C539.049 49.9929 538.187 50.2273 537.202 50.2273ZM537.202 48.7216C537.95 48.7216 538.566 48.5298 539.049 48.1463C539.532 47.7628 539.889 47.2585 540.121 46.6335C540.353 46.0085 540.469 45.3314 540.469 44.6023C540.469 43.8731 540.353 43.1937 540.121 42.5639C539.889 41.9342 539.532 41.4252 539.049 41.0369C538.566 40.6487 537.95 40.4545 537.202 40.4545C536.454 40.4545 535.839 40.6487 535.356 41.0369C534.873 41.4252 534.515 41.9342 534.283 42.5639C534.051 43.1937 533.935 43.8731 533.935 44.6023C533.935 45.3314 534.051 46.0085 534.283 46.6335C534.515 47.2585 534.873 47.7628 535.356 48.1463C535.839 48.5298 536.454 48.7216 537.202 48.7216ZM551.437 39.0909V40.6534H546.38V50H544.704V39.0909H551.437ZM557.749 50.2273C556.764 50.2273 555.9 49.9929 555.157 49.5241C554.418 49.0554 553.84 48.3996 553.424 47.5568C553.012 46.714 552.806 45.7292 552.806 44.6023C552.806 43.4659 553.012 42.474 553.424 41.6264C553.84 40.7789 554.418 40.1207 555.157 39.652C555.9 39.1832 556.764 38.9489 557.749 38.9489C558.734 38.9489 559.596 39.1832 560.334 39.652C561.078 40.1207 561.655 40.7789 562.067 41.6264C562.484 42.474 562.692 43.4659 562.692 44.6023C562.692 45.7292 562.484 46.714 562.067 47.5568C561.655 48.3996 561.078 49.0554 560.334 49.5241C559.596 49.9929 558.734 50.2273 557.749 50.2273ZM557.749 48.7216C558.497 48.7216 559.113 48.5298 559.596 48.1463C560.079 47.7628 560.436 47.2585 560.668 46.6335C560.9 46.0085 561.016 45.3314 561.016 44.6023C561.016 43.8731 560.9 43.1937 560.668 42.5639C560.436 41.9342 560.079 41.4252 559.596 41.0369C559.113 40.6487 558.497 40.4545 557.749 40.4545C557.001 40.4545 556.385 40.6487 555.903 41.0369C555.42 41.4252 555.062 41.9342 554.83 42.5639C554.598 43.1937 554.482 43.8731 554.482 44.6023C554.482 45.3314 554.598 46.0085 554.83 46.6335C555.062 47.2585 555.42 47.7628 555.903 48.1463C556.385 48.5298 557.001 48.7216 557.749 48.7216ZM578.177 43.7784V45.3409H572.154V43.7784H578.177ZM572.552 39.0909V50H570.876V39.0909H572.552ZM579.455 39.0909V50H577.779V39.0909H579.455ZM587.09 50.2273C586.039 50.2273 585.133 49.9953 584.37 49.5312C583.613 49.0625 583.028 48.4091 582.616 47.571C582.209 46.7282 582.005 45.7481 582.005 44.6307C582.005 43.5133 582.209 42.5284 582.616 41.6761C583.028 40.8191 583.601 40.1515 584.335 39.6733C585.073 39.1903 585.935 38.9489 586.92 38.9489C587.488 38.9489 588.049 39.0436 588.603 39.233C589.157 39.4223 589.661 39.7301 590.116 40.1562C590.57 40.5777 590.933 41.1364 591.203 41.8324C591.472 42.5284 591.607 43.3854 591.607 44.4034V45.1136H583.198V43.6648H589.903C589.903 43.0492 589.78 42.5 589.534 42.017C589.292 41.5341 588.946 41.1529 588.497 40.8736C588.052 40.5942 587.526 40.4545 586.92 40.4545C586.252 40.4545 585.675 40.6203 585.187 40.9517C584.704 41.2784 584.332 41.7045 584.072 42.2301C583.811 42.7557 583.681 43.3191 583.681 43.9205V44.8864C583.681 45.7102 583.823 46.4086 584.107 46.9815C584.396 47.5497 584.796 47.983 585.308 48.2812C585.819 48.5748 586.413 48.7216 587.09 48.7216C587.531 48.7216 587.928 48.66 588.284 48.5369C588.643 48.4091 588.954 48.2197 589.214 47.9688C589.474 47.7131 589.676 47.3958 589.818 47.017L591.437 47.4716C591.267 48.0208 590.98 48.5038 590.578 48.9205C590.175 49.3324 589.678 49.6544 589.086 49.8864C588.494 50.1136 587.829 50.2273 587.09 50.2273ZM602.254 35L603.106 36.0227C602.775 36.3447 602.391 36.5696 601.955 36.6974C601.52 36.8253 601.027 36.9034 600.478 36.9318C599.929 36.9602 599.318 36.9886 598.646 37.017C597.888 37.0455 597.261 37.2301 596.764 37.571C596.267 37.9119 595.883 38.4044 595.613 39.0483C595.343 39.6922 595.17 40.483 595.095 41.4205H595.237C595.606 40.7386 596.117 40.2367 596.771 39.9148C597.424 39.5928 598.125 39.4318 598.873 39.4318C599.725 39.4318 600.492 39.6307 601.174 40.0284C601.856 40.4261 602.396 41.0156 602.794 41.7969C603.191 42.5781 603.39 43.5417 603.39 44.6875C603.39 45.8286 603.186 46.8134 602.779 47.642C602.377 48.4706 601.811 49.1098 601.082 49.5597C600.357 50.0047 599.508 50.2273 598.532 50.2273C597.557 50.2273 596.702 49.9976 595.968 49.5384C595.234 49.0743 594.664 48.3878 594.257 47.4787C593.849 46.5649 593.646 45.4356 593.646 44.0909V42.9261C593.646 40.4972 594.058 38.6553 594.882 37.4006C595.71 36.1458 596.955 35.4972 598.617 35.4545C599.204 35.4356 599.728 35.4309 600.187 35.4403C600.646 35.4498 601.046 35.4285 601.387 35.3764C601.728 35.3243 602.017 35.1989 602.254 35ZM598.532 48.7216C599.19 48.7216 599.756 48.5559 600.23 48.2244C600.708 47.893 601.075 47.4266 601.33 46.8253C601.586 46.2192 601.714 45.5066 601.714 44.6875C601.714 43.892 601.584 43.215 601.323 42.6562C601.068 42.0975 600.701 41.6714 600.222 41.3778C599.744 41.0843 599.171 40.9375 598.504 40.9375C598.016 40.9375 597.578 41.0204 597.19 41.1861C596.802 41.3518 596.47 41.5956 596.195 41.9176C595.921 42.2396 595.708 42.6326 595.556 43.0966C595.41 43.5606 595.331 44.0909 595.322 44.6875C595.322 45.9091 595.608 46.8868 596.181 47.6207C596.754 48.3546 597.538 48.7216 598.532 48.7216ZM609.164 50.2557C608.473 50.2557 607.846 50.1255 607.282 49.8651C606.719 49.5999 606.271 49.2188 605.94 48.7216C605.608 48.2197 605.443 47.6136 605.443 46.9034C605.443 46.2784 605.566 45.7718 605.812 45.3835C606.058 44.9905 606.387 44.6828 606.799 44.4602C607.211 44.2377 607.666 44.072 608.163 43.9631C608.665 43.8494 609.169 43.7595 609.676 43.6932C610.338 43.608 610.876 43.544 611.288 43.5014C611.704 43.4541 612.008 43.3759 612.197 43.267C612.391 43.1581 612.488 42.9687 612.488 42.6989V42.642C612.488 41.9413 612.296 41.3968 611.913 41.0085C611.534 40.6203 610.959 40.4261 610.187 40.4261C609.387 40.4261 608.759 40.6013 608.305 40.9517C607.85 41.3021 607.531 41.6761 607.346 42.0739L605.755 41.5057C606.039 40.8428 606.418 40.3267 606.892 39.9574C607.37 39.5833 607.891 39.3229 608.454 39.1761C609.022 39.0246 609.581 38.9489 610.13 38.9489C610.481 38.9489 610.883 38.9915 611.338 39.0767C611.797 39.1572 612.24 39.3253 612.666 39.581C613.097 39.8366 613.454 40.2225 613.738 40.7386C614.022 41.2547 614.164 41.946 614.164 42.8125V50H612.488V48.5227H612.403C612.289 48.7595 612.1 49.0128 611.835 49.2827C611.57 49.5526 611.217 49.7822 610.776 49.9716C610.336 50.161 609.799 50.2557 609.164 50.2557ZM609.42 48.75C610.083 48.75 610.642 48.6198 611.096 48.3594C611.555 48.099 611.901 47.7628 612.133 47.3509C612.37 46.9389 612.488 46.5057 612.488 46.0511V44.517C612.417 44.6023 612.261 44.6804 612.019 44.7514C611.783 44.8177 611.508 44.8769 611.195 44.929C610.888 44.9763 610.587 45.0189 610.294 45.0568C610.005 45.09 609.77 45.1184 609.59 45.142C609.155 45.1989 608.748 45.2912 608.369 45.419C607.995 45.5421 607.692 45.7292 607.46 45.9801C607.232 46.2263 607.119 46.5625 607.119 46.9886C607.119 47.571 607.334 48.0114 607.765 48.3097C608.201 48.6032 608.752 48.75 609.42 48.75ZM619.439 35.4545L619.297 45.9091H617.65L617.508 35.4545H619.439ZM618.474 50.1136C618.123 50.1136 617.823 49.9882 617.572 49.7372C617.321 49.4863 617.195 49.1856 617.195 48.8352C617.195 48.4848 617.321 48.1842 617.572 47.9332C617.823 47.6823 618.123 47.5568 618.474 47.5568C618.824 47.5568 619.125 47.6823 619.376 47.9332C619.626 48.1842 619.752 48.4848 619.752 48.8352C619.752 49.0672 619.693 49.2803 619.574 49.4744C619.461 49.6686 619.307 49.8248 619.113 49.9432C618.923 50.0568 618.71 50.1136 618.474 50.1136ZM377.392 74V59.4545H382.477C383.491 59.4545 384.326 59.6297 384.985 59.9801C385.643 60.3258 386.133 60.7921 386.455 61.3793C386.777 61.9616 386.938 62.608 386.938 63.3182C386.938 63.9432 386.826 64.4593 386.604 64.8665C386.386 65.2737 386.097 65.5956 385.737 65.8324C385.382 66.0691 384.996 66.2443 384.58 66.358V66.5C385.025 66.5284 385.472 66.6847 385.922 66.9688C386.372 67.2528 386.748 67.66 387.051 68.1903C387.354 68.7206 387.506 69.3693 387.506 70.1364C387.506 70.8655 387.34 71.5213 387.009 72.1037C386.677 72.6861 386.154 73.1477 385.439 73.4886C384.724 73.8295 383.794 74 382.648 74H377.392ZM379.154 72.4375H382.648C383.798 72.4375 384.615 72.215 385.098 71.7699C385.586 71.3201 385.83 70.7756 385.83 70.1364C385.83 69.6439 385.704 69.1894 385.453 68.7727C385.202 68.3513 384.845 68.0152 384.381 67.7642C383.917 67.5085 383.368 67.3807 382.733 67.3807H379.154V72.4375ZM379.154 65.8466H382.421C382.951 65.8466 383.429 65.7424 383.855 65.5341C384.286 65.3258 384.627 65.0322 384.878 64.6534C385.134 64.2746 385.262 63.8295 385.262 63.3182C385.262 62.679 385.039 62.1368 384.594 61.6918C384.149 61.242 383.443 61.017 382.477 61.017H379.154V65.8466ZM394.605 74.2273C393.582 74.2273 392.701 73.9858 391.963 73.5028C391.224 73.0199 390.656 72.3546 390.258 71.5071C389.86 70.6596 389.661 69.6913 389.661 68.6023C389.661 67.4943 389.865 66.5166 390.272 65.669C390.684 64.8168 391.257 64.1515 391.991 63.6733C392.73 63.1903 393.591 62.9489 394.576 62.9489C395.343 62.9489 396.035 63.0909 396.65 63.375C397.266 63.6591 397.77 64.0568 398.163 64.5682C398.556 65.0795 398.8 65.6761 398.894 66.358H397.218C397.09 65.8608 396.806 65.4205 396.366 65.0369C395.93 64.6487 395.343 64.4545 394.605 64.4545C393.951 64.4545 393.378 64.625 392.886 64.9659C392.398 65.3021 392.017 65.7779 391.742 66.3935C391.472 67.0043 391.338 67.7216 391.338 68.5455C391.338 69.3883 391.47 70.1222 391.735 70.7472C392.005 71.3722 392.384 71.8575 392.872 72.2031C393.364 72.5488 393.942 72.7216 394.605 72.7216C395.04 72.7216 395.436 72.6458 395.791 72.4943C396.146 72.3428 396.446 72.125 396.693 71.8409C396.939 71.5568 397.114 71.2159 397.218 70.8182H398.894C398.8 71.4621 398.565 72.0421 398.191 72.5582C397.822 73.0696 397.332 73.4768 396.721 73.7798C396.115 74.0781 395.41 74.2273 394.605 74.2273ZM405.919 74.2273C404.867 74.2273 403.961 73.9953 403.198 73.5312C402.441 73.0625 401.856 72.4091 401.444 71.571C401.037 70.7282 400.833 69.7481 400.833 68.6307C400.833 67.5133 401.037 66.5284 401.444 65.6761C401.856 64.8191 402.429 64.1515 403.163 63.6733C403.901 63.1903 404.763 62.9489 405.748 62.9489C406.316 62.9489 406.877 63.0436 407.431 63.233C407.985 63.4223 408.49 63.7301 408.944 64.1562C409.399 64.5777 409.761 65.1364 410.031 65.8324C410.301 66.5284 410.436 67.3854 410.436 68.4034V69.1136H402.026V67.6648H408.731C408.731 67.0492 408.608 66.5 408.362 66.017C408.12 65.5341 407.775 65.1529 407.325 64.8736C406.88 64.5942 406.354 64.4545 405.748 64.4545C405.08 64.4545 404.503 64.6203 404.015 64.9517C403.532 65.2784 403.16 65.7045 402.9 66.2301C402.64 66.7557 402.509 67.3191 402.509 67.9205V68.8864C402.509 69.7102 402.651 70.4086 402.936 70.9815C403.224 71.5497 403.624 71.983 404.136 72.2812C404.647 72.5748 405.241 72.7216 405.919 72.7216C406.359 72.7216 406.757 72.66 407.112 72.5369C407.472 72.4091 407.782 72.2197 408.042 71.9688C408.302 71.7131 408.504 71.3958 408.646 71.017L410.265 71.4716C410.095 72.0208 409.808 72.5038 409.406 72.9205C409.003 73.3324 408.506 73.6544 407.914 73.8864C407.322 74.1136 406.657 74.2273 405.919 74.2273ZM426.707 59L427.559 60.0227C427.228 60.3447 426.844 60.5696 426.409 60.6974C425.973 60.8253 425.481 60.9034 424.931 60.9318C424.382 60.9602 423.771 60.9886 423.099 61.017C422.341 61.0455 421.714 61.2301 421.217 61.571C420.72 61.9119 420.336 62.4044 420.066 63.0483C419.796 63.6922 419.624 64.483 419.548 65.4205H419.69C420.059 64.7386 420.57 64.2367 421.224 63.9148C421.877 63.5928 422.578 63.4318 423.326 63.4318C424.178 63.4318 424.945 63.6307 425.627 64.0284C426.309 64.4261 426.849 65.0156 427.247 65.7969C427.644 66.5781 427.843 67.5417 427.843 68.6875C427.843 69.8286 427.64 70.8134 427.232 71.642C426.83 72.4706 426.264 73.1098 425.535 73.5597C424.811 74.0047 423.961 74.2273 422.985 74.2273C422.01 74.2273 421.155 73.9976 420.421 73.5384C419.687 73.0743 419.117 72.3878 418.71 71.4787C418.302 70.5649 418.099 69.4356 418.099 68.0909V66.9261C418.099 64.4972 418.511 62.6553 419.335 61.4006C420.163 60.1458 421.409 59.4972 423.07 59.4545C423.658 59.4356 424.181 59.4309 424.64 59.4403C425.099 59.4498 425.499 59.4285 425.84 59.3764C426.181 59.3243 426.47 59.1989 426.707 59ZM422.985 72.7216C423.643 72.7216 424.209 72.5559 424.683 72.2244C425.161 71.893 425.528 71.4266 425.784 70.8253C426.039 70.2192 426.167 69.5066 426.167 68.6875C426.167 67.892 426.037 67.215 425.776 66.6562C425.521 66.0975 425.154 65.6714 424.676 65.3778C424.197 65.0843 423.624 64.9375 422.957 64.9375C422.469 64.9375 422.031 65.0204 421.643 65.1861C421.255 65.3518 420.923 65.5956 420.649 65.9176C420.374 66.2396 420.161 66.6326 420.009 67.0966C419.863 67.5606 419.785 68.0909 419.775 68.6875C419.775 69.9091 420.061 70.8868 420.634 71.6207C421.207 72.3546 421.991 72.7216 422.985 72.7216ZM431.487 78.0909C431.203 78.0909 430.949 78.0672 430.727 78.0199C430.504 77.9773 430.35 77.9347 430.265 77.892L430.691 76.4148C431.098 76.5189 431.458 76.5568 431.771 76.5284C432.083 76.5 432.36 76.3603 432.602 76.1094C432.848 75.8632 433.073 75.4631 433.276 74.9091L433.589 74.0568L429.555 63.0909H431.373L434.384 71.7841H434.498L437.509 63.0909H439.328L434.697 75.5909C434.489 76.1544 434.231 76.6207 433.923 76.9901C433.615 77.3641 433.258 77.6411 432.85 77.821C432.448 78.0009 431.993 78.0909 431.487 78.0909ZM439.457 77.125V72.4375H440.366C440.589 72.2055 440.781 71.9545 440.942 71.6847C441.103 71.4148 441.242 71.0952 441.361 70.7259C441.484 70.3518 441.588 69.8973 441.673 69.3622C441.758 68.8224 441.834 68.1714 441.9 67.4091L442.27 63.0909H449.202V72.4375H450.878V77.125H449.202V74H441.133V77.125H439.457ZM442.27 72.4375H447.525V64.6534H443.832L443.548 67.4091C443.43 68.5502 443.283 69.5469 443.108 70.3991C442.933 71.2514 442.653 71.9309 442.27 72.4375ZM457.676 74.2273C456.625 74.2273 455.718 73.9953 454.956 73.5312C454.199 73.0625 453.614 72.4091 453.202 71.571C452.795 70.7282 452.591 69.7481 452.591 68.6307C452.591 67.5133 452.795 66.5284 453.202 65.6761C453.614 64.8191 454.187 64.1515 454.921 63.6733C455.659 63.1903 456.521 62.9489 457.506 62.9489C458.074 62.9489 458.635 63.0436 459.189 63.233C459.743 63.4223 460.247 63.7301 460.702 64.1562C461.156 64.5777 461.519 65.1364 461.789 65.8324C462.058 66.5284 462.193 67.3854 462.193 68.4034V69.1136H453.784V67.6648H460.489C460.489 67.0492 460.366 66.5 460.119 66.017C459.878 65.5341 459.532 65.1529 459.083 64.8736C458.637 64.5942 458.112 64.4545 457.506 64.4545C456.838 64.4545 456.261 64.6203 455.773 64.9517C455.29 65.2784 454.918 65.7045 454.658 66.2301C454.397 66.7557 454.267 67.3191 454.267 67.9205V68.8864C454.267 69.7102 454.409 70.4086 454.693 70.9815C454.982 71.5497 455.382 71.983 455.894 72.2812C456.405 72.5748 456.999 72.7216 457.676 72.7216C458.117 72.7216 458.514 72.66 458.869 72.5369C459.229 72.4091 459.539 72.2197 459.8 71.9688C460.06 71.7131 460.262 71.3958 460.404 71.017L462.023 71.4716C461.852 72.0208 461.566 72.5038 461.164 72.9205C460.761 73.3324 460.264 73.6544 459.672 73.8864C459.08 74.1136 458.415 74.2273 457.676 74.2273ZM471.362 74.1989V72.5511H472.271C472.622 72.5511 472.915 72.4825 473.152 72.3452C473.394 72.2079 473.593 72.0303 473.749 71.8125C473.91 71.5947 474.042 71.3674 474.146 71.1307L474.374 70.5909L469.345 59.4545H471.249L475.254 68.4886L478.919 59.4545H480.794L475.766 71.642C475.567 72.0966 475.34 72.518 475.084 72.9062C474.833 73.2945 474.49 73.607 474.054 73.8438C473.623 74.0805 473.039 74.1989 472.3 74.1989H471.362ZM482.048 74V63.0909H483.724V67.8352H484.832L488.752 63.0909H490.911L486.508 68.3466L490.968 74H488.809L485.23 69.3977H483.724V74H482.048ZM492.79 78.0909V63.0909H494.409V64.8239H494.608C494.731 64.6345 494.902 64.393 495.119 64.0994C495.342 63.8011 495.659 63.536 496.071 63.304C496.488 63.0672 497.051 62.9489 497.762 62.9489C498.68 62.9489 499.49 63.1785 500.191 63.6378C500.891 64.0971 501.438 64.7481 501.831 65.5909C502.224 66.4337 502.421 67.428 502.421 68.5739C502.421 69.7292 502.224 70.7306 501.831 71.5781C501.438 72.4209 500.894 73.0743 500.198 73.5384C499.502 73.9976 498.699 74.2273 497.79 74.2273C497.089 74.2273 496.528 74.1113 496.107 73.8793C495.685 73.6425 495.361 73.375 495.134 73.0767C494.906 72.7737 494.731 72.5227 494.608 72.3239H494.466V78.0909H492.79ZM494.438 68.5455C494.438 69.3693 494.558 70.0961 494.8 70.7259C495.041 71.3509 495.394 71.8409 495.858 72.196C496.322 72.5464 496.89 72.7216 497.563 72.7216C498.263 72.7216 498.848 72.5369 499.317 72.1676C499.79 71.7936 500.146 71.2917 500.382 70.6619C500.624 70.0275 500.744 69.322 500.744 68.5455C500.744 67.7784 500.626 67.0871 500.389 66.4716C500.157 65.8513 499.805 65.3613 499.331 65.0014C498.862 64.6368 498.273 64.4545 497.563 64.4545C496.881 64.4545 496.308 64.6274 495.844 64.973C495.38 65.3139 495.03 65.7921 494.793 66.4077C494.556 67.0185 494.438 67.7311 494.438 68.5455ZM508.188 74.2557C507.496 74.2557 506.869 74.1255 506.306 73.8651C505.742 73.5999 505.295 73.2188 504.963 72.7216C504.632 72.2197 504.466 71.6136 504.466 70.9034C504.466 70.2784 504.589 69.7718 504.835 69.3835C505.082 68.9905 505.411 68.6828 505.823 68.4602C506.235 68.2377 506.689 68.072 507.186 67.9631C507.688 67.8494 508.192 67.7595 508.699 67.6932C509.362 67.608 509.899 67.544 510.311 67.5014C510.728 67.4541 511.031 67.3759 511.22 67.267C511.414 67.1581 511.512 66.9687 511.512 66.6989V66.642C511.512 65.9413 511.32 65.3968 510.936 65.0085C510.557 64.6203 509.982 64.4261 509.21 64.4261C508.41 64.4261 507.783 64.6013 507.328 64.9517C506.874 65.3021 506.554 65.6761 506.369 66.0739L504.779 65.5057C505.063 64.8428 505.441 64.3267 505.915 63.9574C506.393 63.5833 506.914 63.3229 507.477 63.1761C508.046 63.0246 508.604 62.9489 509.154 62.9489C509.504 62.9489 509.906 62.9915 510.361 63.0767C510.82 63.1572 511.263 63.3253 511.689 63.581C512.12 63.8366 512.477 64.2225 512.762 64.7386C513.046 65.2547 513.188 65.946 513.188 66.8125V74H511.512V72.5227H511.426C511.313 72.7595 511.123 73.0128 510.858 73.2827C510.593 73.5526 510.24 73.7822 509.8 73.9716C509.36 74.161 508.822 74.2557 508.188 74.2557ZM508.443 72.75C509.106 72.75 509.665 72.6198 510.119 72.3594C510.579 72.099 510.924 71.7628 511.156 71.3509C511.393 70.9389 511.512 70.5057 511.512 70.0511V68.517C511.441 68.6023 511.284 68.6804 511.043 68.7514C510.806 68.8177 510.531 68.8769 510.219 68.929C509.911 68.9763 509.61 69.0189 509.317 69.0568C509.028 69.09 508.794 69.1184 508.614 69.142C508.178 69.1989 507.771 69.2912 507.392 69.419C507.018 69.5421 506.715 69.7292 506.483 69.9801C506.256 70.2263 506.142 70.5625 506.142 70.9886C506.142 71.571 506.358 72.0114 506.789 72.3097C507.224 72.6032 507.776 72.75 508.443 72.75ZM516.247 74V63.0909H517.923V74H516.247ZM515.054 61.2727C514.756 61.2727 514.493 61.1591 514.265 60.9318C514.033 60.6998 513.917 60.4347 513.917 60.1364C513.917 59.8097 514.033 59.5398 514.265 59.3267C514.493 59.1089 514.756 59 515.054 59C515.381 59 515.65 59.1089 515.863 59.3267C516.081 59.5398 516.19 59.8097 516.19 60.1364C516.19 60.4347 516.081 60.6998 515.863 60.9318C515.65 61.1591 515.381 61.2727 515.054 61.2727ZM519.145 61.2727C518.846 61.2727 518.581 61.1591 518.349 60.9318C518.122 60.6998 518.008 60.4347 518.008 60.1364C518.008 59.8097 518.122 59.5398 518.349 59.3267C518.581 59.1089 518.846 59 519.145 59C519.471 59 519.741 59.1089 519.954 59.3267C520.172 59.5398 520.281 59.8097 520.281 60.1364C520.281 60.4347 520.172 60.6998 519.954 60.9318C519.741 61.1591 519.471 61.2727 519.145 61.2727ZM528.294 67.7784V69.3409H522.271V67.7784H528.294ZM522.669 63.0909V74H520.993V63.0909H522.669ZM529.573 63.0909V74H527.896V63.0909H529.573ZM535.844 74.2557C535.153 74.2557 534.525 74.1255 533.962 73.8651C533.398 73.5999 532.951 73.2188 532.619 72.7216C532.288 72.2197 532.122 71.6136 532.122 70.9034C532.122 70.2784 532.245 69.7718 532.492 69.3835C532.738 68.9905 533.067 68.6828 533.479 68.4602C533.891 68.2377 534.345 68.072 534.843 67.9631C535.344 67.8494 535.849 67.7595 536.355 67.6932C537.018 67.608 537.556 67.544 537.968 67.5014C538.384 67.4541 538.687 67.3759 538.877 67.267C539.071 67.1581 539.168 66.9687 539.168 66.6989V66.642C539.168 65.9413 538.976 65.3968 538.593 65.0085C538.214 64.6203 537.638 64.4261 536.867 64.4261C536.066 64.4261 535.439 64.6013 534.985 64.9517C534.53 65.3021 534.21 65.6761 534.026 66.0739L532.435 65.5057C532.719 64.8428 533.098 64.3267 533.571 63.9574C534.049 63.5833 534.57 63.3229 535.134 63.1761C535.702 63.0246 536.261 62.9489 536.81 62.9489C537.16 62.9489 537.563 62.9915 538.017 63.0767C538.477 63.1572 538.919 63.3253 539.345 63.581C539.776 63.8366 540.134 64.2225 540.418 64.7386C540.702 65.2547 540.844 65.946 540.844 66.8125V74H539.168V72.5227H539.083C538.969 72.7595 538.78 73.0128 538.514 73.2827C538.249 73.5526 537.896 73.7822 537.456 73.9716C537.016 74.161 536.478 74.2557 535.844 74.2557ZM536.1 72.75C536.762 72.75 537.321 72.6198 537.776 72.3594C538.235 72.099 538.581 71.7628 538.813 71.3509C539.049 70.9389 539.168 70.5057 539.168 70.0511V68.517C539.097 68.6023 538.941 68.6804 538.699 68.7514C538.462 68.8177 538.188 68.8769 537.875 68.929C537.567 68.9763 537.267 69.0189 536.973 69.0568C536.684 69.09 536.45 69.1184 536.27 69.142C535.834 69.1989 535.427 69.2912 535.048 69.419C534.674 69.5421 534.371 69.7292 534.139 69.9801C533.912 70.2263 533.798 70.5625 533.798 70.9886C533.798 71.571 534.014 72.0114 534.445 72.3097C534.88 72.6032 535.432 72.75 536.1 72.75Z" fill="black"/>
<path d="M347.581 12.4375V19H345.905V4.45455H347.581V9.79545H347.723C347.979 9.23201 348.363 8.78456 348.874 8.45312C349.39 8.11695 350.077 7.94886 350.934 7.94886C351.677 7.94886 352.328 8.09801 352.887 8.39631C353.445 8.68987 353.879 9.14205 354.186 9.75284C354.499 10.3589 354.655 11.1307 354.655 12.0682V19H352.979V12.1818C352.979 11.3153 352.754 10.6454 352.304 10.1719C351.859 9.69366 351.241 9.45455 350.451 9.45455C349.901 9.45455 349.409 9.57055 348.973 9.80256C348.542 10.0346 348.202 10.3731 347.951 10.8182C347.704 11.2633 347.581 11.803 347.581 12.4375ZM362.466 8.09091V9.51136H356.812V8.09091H362.466ZM358.46 5.47727H360.136V15.875C360.136 16.3485 360.205 16.7036 360.342 16.9403C360.484 17.1723 360.664 17.3286 360.882 17.4091C361.105 17.4848 361.339 17.5227 361.585 17.5227C361.77 17.5227 361.921 17.5133 362.04 17.4943C362.158 17.4706 362.253 17.4517 362.324 17.4375L362.665 18.9432C362.551 18.9858 362.393 19.0284 362.189 19.071C361.985 19.1184 361.727 19.142 361.415 19.142C360.941 19.142 360.477 19.0402 360.023 18.8366C359.573 18.633 359.199 18.3229 358.901 17.9062C358.607 17.4896 358.46 16.964 358.46 16.3295V5.47727ZM369.732 8.09091V9.51136H364.078V8.09091H369.732ZM365.726 5.47727H367.402V15.875C367.402 16.3485 367.471 16.7036 367.608 16.9403C367.75 17.1723 367.93 17.3286 368.148 17.4091C368.37 17.4848 368.605 17.5227 368.851 17.5227C369.036 17.5227 369.187 17.5133 369.305 17.4943C369.424 17.4706 369.518 17.4517 369.589 17.4375L369.93 18.9432C369.817 18.9858 369.658 19.0284 369.455 19.071C369.251 19.1184 368.993 19.142 368.68 19.142C368.207 19.142 367.743 19.0402 367.288 18.8366C366.839 18.633 366.464 18.3229 366.166 17.9062C365.873 17.4896 365.726 16.964 365.726 16.3295V5.47727ZM372.253 23.0909V8.09091H373.872V9.82386H374.071C374.194 9.63447 374.365 9.39299 374.582 9.09943C374.805 8.80114 375.122 8.53598 375.534 8.30398C375.951 8.06723 376.514 7.94886 377.224 7.94886C378.143 7.94886 378.953 8.1785 379.653 8.63778C380.354 9.09706 380.901 9.74811 381.294 10.5909C381.687 11.4337 381.884 12.428 381.884 13.5739C381.884 14.7292 381.687 15.7306 381.294 16.5781C380.901 17.4209 380.357 18.0743 379.661 18.5384C378.964 18.9976 378.162 19.2273 377.253 19.2273C376.552 19.2273 375.991 19.1113 375.57 18.8793C375.148 18.6425 374.824 18.375 374.597 18.0767C374.369 17.7737 374.194 17.5227 374.071 17.3239H373.929V23.0909H372.253ZM373.901 13.5455C373.901 14.3693 374.021 15.0961 374.263 15.7259C374.504 16.3509 374.857 16.8409 375.321 17.196C375.785 17.5464 376.353 17.7216 377.026 17.7216C377.726 17.7216 378.311 17.5369 378.78 17.1676C379.253 16.7936 379.608 16.2917 379.845 15.6619C380.087 15.0275 380.207 14.322 380.207 13.5455C380.207 12.7784 380.089 12.0871 379.852 11.4716C379.62 10.8513 379.268 10.3613 378.794 10.0014C378.325 9.63684 377.736 9.45455 377.026 9.45455C376.344 9.45455 375.771 9.62737 375.307 9.97301C374.843 10.3139 374.492 10.7921 374.256 11.4077C374.019 12.0185 373.901 12.7311 373.901 13.5455ZM392.168 10.5341L390.662 10.9602C390.567 10.7093 390.428 10.4654 390.243 10.2287C390.063 9.98722 389.817 9.78835 389.504 9.6321C389.192 9.47585 388.792 9.39773 388.304 9.39773C387.636 9.39773 387.08 9.55161 386.635 9.85938C386.195 10.1624 385.974 10.5483 385.974 11.017C385.974 11.4337 386.126 11.7628 386.429 12.0043C386.732 12.2457 387.205 12.447 387.849 12.608L389.469 13.0057C390.444 13.2424 391.171 13.6046 391.649 14.0923C392.127 14.5753 392.366 15.1979 392.366 15.9602C392.366 16.5852 392.187 17.1439 391.827 17.6364C391.472 18.1288 390.974 18.517 390.335 18.8011C389.696 19.0852 388.953 19.2273 388.105 19.2273C386.992 19.2273 386.071 18.9858 385.342 18.5028C384.613 18.0199 384.152 17.3144 383.957 16.3864L385.548 15.9886C385.7 16.5758 385.986 17.0161 386.408 17.3097C386.834 17.6032 387.39 17.75 388.077 17.75C388.858 17.75 389.478 17.5843 389.938 17.2528C390.402 16.9167 390.634 16.5142 390.634 16.0455C390.634 15.6667 390.501 15.3494 390.236 15.0938C389.971 14.8333 389.563 14.6392 389.014 14.5114L387.196 14.0852C386.197 13.8485 385.463 13.4815 384.994 12.9844C384.53 12.4825 384.298 11.8551 384.298 11.1023C384.298 10.4867 384.471 9.94223 384.817 9.46875C385.167 8.99527 385.643 8.62358 386.244 8.35369C386.85 8.08381 387.537 7.94886 388.304 7.94886C389.384 7.94886 390.231 8.18561 390.847 8.65909C391.467 9.13258 391.907 9.75758 392.168 10.5341ZM396.111 19.1136C395.761 19.1136 395.46 18.9882 395.209 18.7372C394.958 18.4863 394.833 18.1856 394.833 17.8352C394.833 17.4848 394.958 17.1842 395.209 16.9332C395.46 16.6823 395.761 16.5568 396.111 16.5568C396.462 16.5568 396.762 16.6823 397.013 16.9332C397.264 17.1842 397.39 17.4848 397.39 17.8352C397.39 18.0672 397.33 18.2803 397.212 18.4744C397.098 18.6686 396.944 18.8248 396.75 18.9432C396.561 19.0568 396.348 19.1136 396.111 19.1136ZM396.111 11.017C395.761 11.017 395.46 10.8916 395.209 10.6406C394.958 10.3897 394.833 10.089 394.833 9.73864C394.833 9.38826 394.958 9.08759 395.209 8.83665C395.46 8.5857 395.761 8.46023 396.111 8.46023C396.462 8.46023 396.762 8.5857 397.013 8.83665C397.264 9.08759 397.39 9.38826 397.39 9.73864C397.39 9.97064 397.33 10.1837 397.212 10.3778C397.098 10.572 396.944 10.7282 396.75 10.8466C396.561 10.9602 396.348 11.017 396.111 11.017ZM405.539 3.77273L400.852 21.1875H399.318L404.005 3.77273H405.539ZM412.668 3.77273L407.981 21.1875H406.447L411.134 3.77273H412.668ZM415.081 19L421.587 6.13068V6.01705H414.087V4.45455H423.405V6.10227L416.928 19H415.081ZM429.639 19.2273C428.588 19.2273 427.681 18.9953 426.919 18.5312C426.161 18.0625 425.577 17.4091 425.165 16.571C424.758 15.7282 424.554 14.7481 424.554 13.6307C424.554 12.5133 424.758 11.5284 425.165 10.6761C425.577 9.81913 426.15 9.15152 426.884 8.6733C427.622 8.19034 428.484 7.94886 429.469 7.94886C430.037 7.94886 430.598 8.04356 431.152 8.23295C431.706 8.42235 432.21 8.73011 432.665 9.15625C433.119 9.57765 433.482 10.1364 433.751 10.8324C434.021 11.5284 434.156 12.3854 434.156 13.4034V14.1136H425.747V12.6648H432.452C432.452 12.0492 432.329 11.5 432.082 11.017C431.841 10.5341 431.495 10.1529 431.045 9.87358C430.6 9.59422 430.075 9.45455 429.469 9.45455C428.801 9.45455 428.223 9.62026 427.736 9.9517C427.253 10.2784 426.881 10.7045 426.621 11.2301C426.36 11.7557 426.23 12.3191 426.23 12.9205V13.8864C426.23 14.7102 426.372 15.4086 426.656 15.9815C426.945 16.5497 427.345 16.983 427.857 17.2812C428.368 17.5748 428.962 17.7216 429.639 17.7216C430.08 17.7216 430.477 17.66 430.832 17.5369C431.192 17.4091 431.502 17.2197 431.763 16.9688C432.023 16.7131 432.224 16.3958 432.366 16.017L433.986 16.4716C433.815 17.0208 433.529 17.5038 433.126 17.9205C432.724 18.3324 432.227 18.6544 431.635 18.8864C431.043 19.1136 430.378 19.2273 429.639 19.2273ZM437.928 19.1136C437.577 19.1136 437.277 18.9882 437.026 18.7372C436.775 18.4863 436.649 18.1856 436.649 17.8352C436.649 17.4848 436.775 17.1842 437.026 16.9332C437.277 16.6823 437.577 16.5568 437.928 16.5568C438.278 16.5568 438.579 16.6823 438.83 16.9332C439.08 17.1842 439.206 17.4848 439.206 17.8352C439.206 18.0672 439.147 18.2803 439.028 18.4744C438.915 18.6686 438.761 18.8248 438.567 18.9432C438.377 19.0568 438.164 19.1136 437.928 19.1136ZM446.646 19.2273C445.623 19.2273 444.742 18.9858 444.004 18.5028C443.265 18.0199 442.697 17.3546 442.299 16.5071C441.901 15.6596 441.702 14.6913 441.702 13.6023C441.702 12.4943 441.906 11.5166 442.313 10.669C442.725 9.81676 443.298 9.15152 444.032 8.6733C444.771 8.19034 445.632 7.94886 446.617 7.94886C447.384 7.94886 448.076 8.09091 448.691 8.375C449.307 8.65909 449.811 9.05682 450.204 9.56818C450.597 10.0795 450.841 10.6761 450.935 11.358H449.259C449.131 10.8608 448.847 10.4205 448.407 10.0369C447.971 9.64867 447.384 9.45455 446.646 9.45455C445.992 9.45455 445.419 9.625 444.927 9.96591C444.439 10.3021 444.058 10.7779 443.783 11.3935C443.513 12.0043 443.379 12.7216 443.379 13.5455C443.379 14.3883 443.511 15.1222 443.776 15.7472C444.046 16.3722 444.425 16.8575 444.913 17.2031C445.405 17.5488 445.983 17.7216 446.646 17.7216C447.081 17.7216 447.477 17.6458 447.832 17.4943C448.187 17.3428 448.487 17.125 448.734 16.8409C448.98 16.5568 449.155 16.2159 449.259 15.8182H450.935C450.841 16.4621 450.606 17.0421 450.232 17.5582C449.863 18.0696 449.373 18.4768 448.762 18.7798C448.156 19.0781 447.451 19.2273 446.646 19.2273ZM457.817 19.2273C456.833 19.2273 455.969 18.9929 455.225 18.5241C454.487 18.0554 453.909 17.3996 453.492 16.5568C453.08 15.714 452.874 14.7292 452.874 13.6023C452.874 12.4659 453.08 11.474 453.492 10.6264C453.909 9.77888 454.487 9.12074 455.225 8.65199C455.969 8.18324 456.833 7.94886 457.817 7.94886C458.802 7.94886 459.664 8.18324 460.403 8.65199C461.146 9.12074 461.724 9.77888 462.136 10.6264C462.552 11.474 462.761 12.4659 462.761 13.6023C462.761 14.7292 462.552 15.714 462.136 16.5568C461.724 17.3996 461.146 18.0554 460.403 18.5241C459.664 18.9929 458.802 19.2273 457.817 19.2273ZM457.817 17.7216C458.566 17.7216 459.181 17.5298 459.664 17.1463C460.147 16.7628 460.504 16.2585 460.737 15.6335C460.969 15.0085 461.085 14.3314 461.085 13.6023C461.085 12.8731 460.969 12.1937 460.737 11.5639C460.504 10.9342 460.147 10.4252 459.664 10.0369C459.181 9.64867 458.566 9.45455 457.817 9.45455C457.069 9.45455 456.454 9.64867 455.971 10.0369C455.488 10.4252 455.13 10.9342 454.898 11.5639C454.666 12.1937 454.55 12.8731 454.55 13.6023C454.55 14.3314 454.666 15.0085 454.898 15.6335C455.13 16.2585 455.488 16.7628 455.971 17.1463C456.454 17.5298 457.069 17.7216 457.817 17.7216ZM465.319 19V8.09091H466.939V9.79545H467.081C467.308 9.21307 467.675 8.76089 468.181 8.43892C468.688 8.11222 469.297 7.94886 470.007 7.94886C470.726 7.94886 471.325 8.11222 471.804 8.43892C472.287 8.76089 472.663 9.21307 472.933 9.79545H473.047C473.326 9.23201 473.745 8.78456 474.304 8.45312C474.862 8.11695 475.532 7.94886 476.314 7.94886C477.289 7.94886 478.087 8.25426 478.707 8.86506C479.327 9.47112 479.637 10.4157 479.637 11.6989V19H477.961V11.6989C477.961 10.8939 477.741 10.3187 477.301 9.97301C476.86 9.62737 476.342 9.45455 475.745 9.45455C474.978 9.45455 474.384 9.68655 473.963 10.1506C473.541 10.6098 473.331 11.1922 473.331 11.8977V19H471.626V11.5284C471.626 10.9081 471.425 10.4086 471.022 10.0298C470.62 9.64631 470.101 9.45455 469.467 9.45455C469.031 9.45455 468.624 9.57055 468.245 9.80256C467.871 10.0346 467.568 10.3565 467.336 10.7685C467.109 11.1757 466.995 11.6468 466.995 12.1818V19H465.319ZM483.924 19.1136C483.573 19.1136 483.273 18.9882 483.022 18.7372C482.771 18.4863 482.645 18.1856 482.645 17.8352C482.645 17.4848 482.771 17.1842 483.022 16.9332C483.273 16.6823 483.573 16.5568 483.924 16.5568C484.274 16.5568 484.575 16.6823 484.826 16.9332C485.077 17.1842 485.202 17.4848 485.202 17.8352C485.202 18.0672 485.143 18.2803 485.025 18.4744C484.911 18.6686 484.757 18.8248 484.563 18.9432C484.373 19.0568 484.16 19.1136 483.924 19.1136ZM495.085 14.5398V8.09091H496.761V19H495.085V17.1534H494.971C494.716 17.7074 494.318 18.1785 493.778 18.5668C493.238 18.9503 492.556 19.142 491.733 19.142C491.051 19.142 490.445 18.9929 489.914 18.6946C489.384 18.3916 488.967 17.937 488.664 17.331C488.361 16.7202 488.21 15.9508 488.21 15.0227V8.09091H489.886V14.9091C489.886 15.7045 490.109 16.339 490.554 16.8125C491.003 17.286 491.576 17.5227 492.272 17.5227C492.689 17.5227 493.113 17.4162 493.544 17.2031C493.979 16.9901 494.344 16.6634 494.637 16.223C494.936 15.7827 495.085 15.2216 495.085 14.5398ZM503.041 19.2557C502.35 19.2557 501.723 19.1255 501.159 18.8651C500.596 18.5999 500.148 18.2188 499.817 17.7216C499.485 17.2197 499.32 16.6136 499.32 15.9034C499.32 15.2784 499.443 14.7718 499.689 14.3835C499.935 13.9905 500.264 13.6828 500.676 13.4602C501.088 13.2377 501.543 13.072 502.04 12.9631C502.542 12.8494 503.046 12.7595 503.553 12.6932C504.215 12.608 504.753 12.544 505.165 12.5014C505.581 12.4541 505.884 12.3759 506.074 12.267C506.268 12.1581 506.365 11.9687 506.365 11.6989V11.642C506.365 10.9413 506.173 10.3968 505.79 10.0085C505.411 9.62027 504.836 9.42614 504.064 9.42614C503.264 9.42614 502.636 9.60133 502.182 9.9517C501.727 10.3021 501.408 10.6761 501.223 11.0739L499.632 10.5057C499.916 9.8428 500.295 9.3267 500.768 8.95739C501.247 8.58333 501.768 8.32292 502.331 8.17614C502.899 8.02462 503.458 7.94886 504.007 7.94886C504.357 7.94886 504.76 7.99148 505.214 8.0767C505.674 8.1572 506.116 8.32528 506.543 8.58097C506.973 8.83665 507.331 9.22254 507.615 9.73864C507.899 10.2547 508.041 10.946 508.041 11.8125V19H506.365V17.5227H506.28C506.166 17.7595 505.977 18.0128 505.712 18.2827C505.446 18.5526 505.094 18.7822 504.653 18.9716C504.213 19.161 503.676 19.2557 503.041 19.2557ZM503.297 17.75C503.96 17.75 504.518 17.6198 504.973 17.3594C505.432 17.099 505.778 16.7628 506.01 16.3509C506.247 15.9389 506.365 15.5057 506.365 15.0511V13.517C506.294 13.6023 506.138 13.6804 505.896 13.7514C505.66 13.8177 505.385 13.8769 505.072 13.929C504.765 13.9763 504.464 14.0189 504.17 14.0568C503.882 14.09 503.647 14.1184 503.467 14.142C503.032 14.1989 502.625 14.2912 502.246 14.419C501.872 14.5421 501.569 14.7292 501.337 14.9801C501.109 15.2263 500.996 15.5625 500.996 15.9886C500.996 16.571 501.211 17.0114 501.642 17.3097C502.078 17.6032 502.629 17.75 503.297 17.75ZM516.243 3.77273L511.555 21.1875H510.021L514.708 3.77273H516.243ZM522.945 19.1989C521.875 19.1989 520.964 18.9077 520.211 18.3253C519.458 17.7382 518.883 16.8883 518.485 15.7756C518.087 14.6581 517.888 13.3087 517.888 11.7273C517.888 10.1553 518.087 8.81297 518.485 7.70028C518.888 6.58286 519.465 5.73059 520.218 5.14347C520.976 4.55161 521.885 4.25568 522.945 4.25568C524.006 4.25568 524.913 4.55161 525.665 5.14347C526.423 5.73059 527.001 6.58286 527.398 7.70028C527.801 8.81297 528.002 10.1553 528.002 11.7273C528.002 13.3087 527.803 14.6581 527.406 15.7756C527.008 16.8883 526.433 17.7382 525.68 18.3253C524.927 18.9077 524.015 19.1989 522.945 19.1989ZM522.945 17.6364C524.006 17.6364 524.83 17.125 525.417 16.1023C526.004 15.0795 526.298 13.6212 526.298 11.7273C526.298 10.4678 526.163 9.39536 525.893 8.50994C525.628 7.62453 525.244 6.94981 524.742 6.4858C524.245 6.02178 523.646 5.78977 522.945 5.78977C521.894 5.78977 521.073 6.30824 520.481 7.34517C519.889 8.37737 519.593 9.83807 519.593 11.7273C519.593 12.9867 519.726 14.0568 519.991 14.9375C520.256 15.8182 520.637 16.4882 521.134 16.9474C521.636 17.4067 522.24 17.6364 522.945 17.6364ZM535.531 19.1989C534.934 19.1894 534.337 19.0758 533.741 18.858C533.144 18.6402 532.6 18.2732 532.107 17.7571C531.615 17.2363 531.219 16.5331 530.921 15.6477C530.623 14.7576 530.474 13.6402 530.474 12.2955C530.474 11.0076 530.594 9.86648 530.836 8.87216C531.077 7.87311 531.428 7.03267 531.887 6.35085C532.346 5.6643 532.9 5.14347 533.549 4.78835C534.202 4.43324 534.939 4.25568 535.758 4.25568C536.572 4.25568 537.297 4.41903 537.931 4.74574C538.57 5.06771 539.091 5.51752 539.494 6.09517C539.896 6.67282 540.156 7.33807 540.275 8.09091H538.542C538.381 7.4375 538.068 6.89536 537.604 6.46449C537.14 6.03362 536.525 5.81818 535.758 5.81818C534.631 5.81818 533.743 6.30824 533.094 7.28835C532.451 8.26847 532.126 9.64394 532.121 11.4148H532.235C532.5 11.0123 532.815 10.669 533.18 10.3849C533.549 10.0961 533.956 9.87358 534.401 9.71733C534.846 9.56108 535.317 9.48295 535.815 9.48295C536.648 9.48295 537.41 9.69129 538.102 10.108C538.793 10.5199 539.347 11.0904 539.763 11.8196C540.18 12.544 540.388 13.375 540.388 14.3125C540.388 15.2121 540.187 16.036 539.785 16.7841C539.382 17.5275 538.817 18.1193 538.087 18.5597C537.363 18.9953 536.511 19.2083 535.531 19.1989ZM535.531 17.6364C536.127 17.6364 536.662 17.4872 537.136 17.1889C537.614 16.8906 537.99 16.4905 538.265 15.9886C538.544 15.4867 538.684 14.928 538.684 14.3125C538.684 13.7112 538.549 13.1643 538.279 12.6719C538.014 12.1747 537.647 11.7794 537.178 11.4858C536.714 11.1922 536.184 11.0455 535.587 11.0455C535.138 11.0455 534.719 11.1354 534.33 11.3153C533.942 11.4905 533.601 11.732 533.308 12.0398C533.019 12.3475 532.791 12.7003 532.626 13.098C532.46 13.491 532.377 13.9053 532.377 14.3409C532.377 14.9186 532.512 15.4583 532.782 15.9602C533.057 16.4621 533.431 16.867 533.904 17.1747C534.382 17.4825 534.924 17.6364 535.531 17.6364ZM547.926 19.1989C546.856 19.1989 545.944 18.9077 545.191 18.3253C544.439 17.7382 543.863 16.8883 543.466 15.7756C543.068 14.6581 542.869 13.3087 542.869 11.7273C542.869 10.1553 543.068 8.81297 543.466 7.70028C543.868 6.58286 544.446 5.73059 545.199 5.14347C545.956 4.55161 546.865 4.25568 547.926 4.25568C548.986 4.25568 549.893 4.55161 550.646 5.14347C551.404 5.73059 551.981 6.58286 552.379 7.70028C552.781 8.81297 552.983 10.1553 552.983 11.7273C552.983 13.3087 552.784 14.6581 552.386 15.7756C551.988 16.8883 551.413 17.7382 550.66 18.3253C549.907 18.9077 548.996 19.1989 547.926 19.1989ZM547.926 17.6364C548.986 17.6364 549.81 17.125 550.397 16.1023C550.984 15.0795 551.278 13.6212 551.278 11.7273C551.278 10.4678 551.143 9.39536 550.873 8.50994C550.608 7.62453 550.225 6.94981 549.723 6.4858C549.225 6.02178 548.627 5.78977 547.926 5.78977C546.875 5.78977 546.053 6.30824 545.461 7.34517C544.869 8.37737 544.574 9.83807 544.574 11.7273C544.574 12.9867 544.706 14.0568 544.971 14.9375C545.236 15.8182 545.618 16.4882 546.115 16.9474C546.617 17.4067 547.22 17.6364 547.926 17.6364ZM560.341 19.1989C559.365 19.1989 558.503 19.026 557.755 18.6804C557.012 18.33 556.432 17.8494 556.015 17.2386C555.599 16.6231 555.393 15.9223 555.397 15.1364C555.393 14.5208 555.513 13.9527 555.76 13.4318C556.006 12.9062 556.342 12.4683 556.768 12.1179C557.199 11.7628 557.68 11.5379 558.21 11.4432V11.358C557.514 11.178 556.96 10.7874 556.548 10.1861C556.136 9.58002 555.932 8.8911 555.937 8.11932C555.932 7.38068 556.119 6.72017 556.498 6.13778C556.877 5.5554 557.398 5.09612 558.061 4.75994C558.728 4.42377 559.488 4.25568 560.341 4.25568C561.183 4.25568 561.936 4.42377 562.599 4.75994C563.262 5.09612 563.783 5.5554 564.162 6.13778C564.545 6.72017 564.739 7.38068 564.744 8.11932C564.739 8.8911 564.529 9.58002 564.112 10.1861C563.7 10.7874 563.153 11.178 562.471 11.358V11.4432C562.997 11.5379 563.47 11.7628 563.892 12.1179C564.313 12.4683 564.649 12.9062 564.9 13.4318C565.151 13.9527 565.279 14.5208 565.284 15.1364C565.279 15.9223 565.066 16.6231 564.645 17.2386C564.228 17.8494 563.648 18.33 562.904 18.6804C562.166 19.026 561.311 19.1989 560.341 19.1989ZM560.341 17.6364C560.999 17.6364 561.567 17.5298 562.045 17.3168C562.523 17.1037 562.893 16.803 563.153 16.4148C563.413 16.0265 563.546 15.572 563.551 15.0511C563.546 14.5019 563.404 14.0166 563.125 13.5952C562.845 13.1738 562.464 12.8423 561.981 12.6009C561.503 12.3594 560.956 12.2386 560.341 12.2386C559.72 12.2386 559.166 12.3594 558.679 12.6009C558.196 12.8423 557.815 13.1738 557.535 13.5952C557.261 14.0166 557.126 14.5019 557.13 15.0511C557.126 15.572 557.251 16.0265 557.507 16.4148C557.767 16.803 558.139 17.1037 558.622 17.3168C559.105 17.5298 559.678 17.6364 560.341 17.6364ZM560.341 10.733C560.861 10.733 561.323 10.6288 561.725 10.4205C562.133 10.2121 562.452 9.92093 562.684 9.54688C562.916 9.17282 563.035 8.73485 563.039 8.23295C563.035 7.74053 562.919 7.31203 562.691 6.94744C562.464 6.57812 562.149 6.29403 561.747 6.09517C561.344 5.89157 560.876 5.78977 560.341 5.78977C559.796 5.78977 559.32 5.89157 558.913 6.09517C558.506 6.29403 558.191 6.57812 557.968 6.94744C557.746 7.31203 557.637 7.74053 557.642 8.23295C557.637 8.73485 557.748 9.17282 557.975 9.54688C558.208 9.92093 558.527 10.2121 558.934 10.4205C559.342 10.6288 559.81 10.733 560.341 10.733ZM573.176 3.77273L568.489 21.1875H566.955L571.642 3.77273H573.176Z" fill="black"/>
<defs>
<radialGradient id="paint0_radial_417_2" cx="0" cy="0" r="1" gradientUnits="userSpaceOnUse" gradientTransform="translate(446.357 192.832) rotate(95.4333) scale(140.8 232.278)">
<stop stop-color="#05026E"/>
<stop offset="0.51875" stop-color="#0500A0" stop-opacity="0.31"/>
<stop offset="1" stop-color="white" stop-opacity="0"/>
</radialGradient>
<linearGradient id="paint1_linear_417_2" x1="485.931" y1="173.05" x2="502.229" y2="186.393" gradientUnits="userSpaceOnUse">
<stop stop-color="#F8E630"/>
<stop offset="1" stop-color="#EFAA28"/>
</linearGradient>
<linearGradient id="paint2_linear_417_2" x1="441.996" y1="132.619" x2="455.144" y2="132.557" gradientUnits="userSpaceOnUse">
<stop stop-color="#ED9D02"/>
<stop offset="0.857292" stop-color="#F5E00C"/>
<stop offset="1" stop-color="#FFFDEA"/>
</linearGradient>
<linearGradient id="paint3_linear_417_2" x1="455.663" y1="125.881" x2="466.606" y2="125.776" gradientUnits="userSpaceOnUse">
<stop stop-color="#FFFAC8"/>
<stop offset="1" stop-color="#F5DB0B"/>
</linearGradient>
<linearGradient id="paint4_linear_417_2" x1="390.666" y1="144.258" x2="399.178" y2="144.467" gradientUnits="userSpaceOnUse">
<stop stop-color="#FAEC5B"/>
<stop offset="1" stop-color="#F5DD0C"/>
</linearGradient>
<linearGradient id="paint5_linear_417_2" x1="399.917" y1="151.61" x2="409.037" y2="151.74" gradientUnits="userSpaceOnUse">
<stop stop-color="#CB882F"/>
<stop offset="1" stop-color="#F4CB2D"/>
</linearGradient>
<linearGradient id="paint6_linear_417_2" x1="409.58" y1="137.52" x2="424.874" y2="132.123" gradientUnits="userSpaceOnUse">
<stop stop-color="#F8E630"/>
<stop offset="1" stop-color="#FFFBD7"/>
</linearGradient>
<linearGradient id="paint7_linear_417_2" x1="478.677" y1="142.114" x2="498.808" y2="146.92" gradientUnits="userSpaceOnUse">
<stop stop-color="#FFFCDD"/>
<stop offset="1" stop-color="#F9E739"/>
</linearGradient>
<linearGradient id="paint8_linear_417_2" x1="408.559" y1="183.77" x2="425.286" y2="171.735" gradientUnits="userSpaceOnUse">
<stop stop-color="#EFAA28"/>
<stop offset="1" stop-color="#F8E630"/>
</linearGradient>
<linearGradient id="paint9_linear_417_2" x1="391.41" y1="229.407" x2="454.562" y2="228.777" gradientUnits="userSpaceOnUse">
<stop stop-color="#FFC601"/>
<stop offset="0.4875" stop-color="#E27A00"/>
<stop offset="1" stop-color="#FFD300"/>
</linearGradient>
<linearGradient id="paint10_linear_417_2" x1="488.675" y1="192.521" x2="479.211" y2="268.356" gradientUnits="userSpaceOnUse">
<stop stop-color="#FFC700"/>
<stop offset="0.497917" stop-color="#E2A300"/>
<stop offset="0.930208" stop-color="#FFD200"/>
</linearGradient>
<linearGradient id="paint11_linear_417_2" x1="401.532" y1="218.994" x2="509.429" y2="205.535" gradientUnits="userSpaceOnUse">
<stop stop-color="#E19500"/>
<stop offset="1" stop-color="#F6E00D"/>
</linearGradient>
<linearGradient id="paint12_linear_417_2" x1="507.418" y1="144.871" x2="519.046" y2="145.004" gradientUnits="userSpaceOnUse">
<stop stop-color="#F8E630"/>
<stop offset="1" stop-color="#FAC746"/>
</linearGradient>
<linearGradient id="paint13_linear_417_2" x1="501.344" y1="158.042" x2="507.88" y2="157.854" gradientUnits="userSpaceOnUse">
<stop stop-color="#F4C72C"/>
<stop offset="1" stop-color="#E7A619"/>
</linearGradient>
<linearGradient id="paint14_linear_417_2" x1="437.165" y1="170.6" x2="437.165" y2="220.831" gradientUnits="userSpaceOnUse">
<stop stop-color="#ED9E03"/>
<stop offset="0.305208" stop-color="#FFEC48"/>
<stop offset="0.551318" stop-color="#FFF29D"/>
<stop offset="0.726178" stop-color="#FDE240"/>
<stop offset="1" stop-color="#F4C328"/>
</linearGradient>
<linearGradient id="paint15_linear_417_2" x1="467.414" y1="170.6" x2="467.414" y2="220.831" gradientUnits="userSpaceOnUse">
<stop offset="0.117708" stop-color="#F1B706"/>
<stop offset="0.555208" stop-color="#FFFAC8"/>
<stop offset="1" stop-color="#F6DE1A"/>
</linearGradient>
<linearGradient id="paint16_linear_417_2" x1="441.209" y1="207.967" x2="468.946" y2="207.334" gradientUnits="userSpaceOnUse">
<stop stop-color="#ED9E03"/>
<stop offset="0.315625" stop-color="#F4D60B"/>
<stop offset="0.500496" stop-color="#FAE2B4"/>
<stop offset="0.690625" stop-color="#F6DE19"/>
<stop offset="1" stop-color="#E0C700"/>
</linearGradient>
<linearGradient id="paint17_linear_417_2" x1="423.219" y1="184.995" x2="423.219" y2="198.472" gradientUnits="userSpaceOnUse">
<stop stop-color="#F7DD2F"/>
<stop offset="1" stop-color="#EFAA28"/>
</linearGradient>
<radialGradient id="paint18_radial_417_2" cx="0" cy="0" r="1" gradientUnits="userSpaceOnUse" gradientTransform="translate(421.51 193.571) rotate(126.82) scale(11.4785 20.9431)">
<stop offset="0.451042" stop-color="#ED9E03"/>
<stop offset="1" stop-color="#F4C72C"/>
</radialGradient>
<linearGradient id="paint19_linear_417_2" x1="402.882" y1="187.752" x2="402.882" y2="214.093" gradientUnits="userSpaceOnUse">
<stop stop-color="#CB882F"/>
<stop offset="1" stop-color="#FFA800"/>
</linearGradient>
<linearGradient id="paint20_linear_417_2" x1="485.798" y1="186.833" x2="485.798" y2="200.616" gradientUnits="userSpaceOnUse">
<stop stop-color="#F7DD2F"/>
<stop offset="1" stop-color="#F0AC29"/>
</linearGradient>
<linearGradient id="paint21_linear_417_2" x1="505.701" y1="191.734" x2="505.701" y2="214.093" gradientUnits="userSpaceOnUse">
<stop stop-color="#CE8A2D"/>
<stop offset="1" stop-color="#FEA801"/>
</linearGradient>
<radialGradient id="paint22_radial_417_2" cx="0" cy="0" r="1" gradientUnits="userSpaceOnUse" gradientTransform="translate(489.875 197.247) rotate(45.8358) scale(10.6745 20.1564)">
<stop offset="0.398958" stop-color="#EEA106"/>
<stop offset="1" stop-color="#F8E430"/>
</radialGradient>
<radialGradient id="paint23_radial_417_2" cx="0" cy="0" r="1" gradientUnits="userSpaceOnUse" gradientTransform="translate(442.381 227.264) rotate(58.9889) scale(19.6554 14.9533)">
<stop stop-color="#CA7D07"/>
<stop offset="1" stop-color="#352000"/>
</radialGradient>
<radialGradient id="paint24_radial_417_2" cx="0" cy="0" r="1" gradientUnits="userSpaceOnUse" gradientTransform="translate(467.768 227.876) rotate(117.553) scale(18.3102 20.4726)">
<stop stop-color="#CA7D07"/>
<stop offset="1" stop-color="#3F2600"/>
</radialGradient>
<radialGradient id="paint25_radial_417_2" cx="0" cy="0" r="1" gradientUnits="userSpaceOnUse" gradientTransform="translate(438.852 210.111) rotate(82.89) scale(4.01265 4.13494)">
<stop stop-color="#EA9107"/>
<stop offset="1" stop-color="#BD7300"/>
</radialGradient>
<radialGradient id="paint26_radial_417_2" cx="0" cy="0" r="1" gradientUnits="userSpaceOnUse" gradientTransform="translate(470.163 209.958) rotate(82.89) scale(4.16698 3.98179)">
<stop stop-color="#CA7D07"/>
<stop offset="1" stop-color="#A86806"/>
</radialGradient>
<linearGradient id="paint27_linear_417_2" x1="457.5" y1="274" x2="457.5" y2="333" gradientUnits="userSpaceOnUse">
<stop stop-color="#05026B"/>
<stop offset="1" stop-color="#0500A4"/>
</linearGradient>
<linearGradient id="paint28_linear_417_2" x1="412.5" y1="244" x2="412.5" y2="346" gradientUnits="userSpaceOnUse">
<stop stop-color="#FFD601"/>
<stop offset="1" stop-color="#FFA600"/>
</linearGradient>
<linearGradient id="paint29_linear_417_2" x1="839" y1="217.5" x2="839" y2="274" gradientUnits="userSpaceOnUse">
<stop stop-color="#FFD400"/>
<stop offset="1" stop-color="#FFB900"/>
</linearGradient>
</defs>
</svg>
